<svg viewBox="0 0 330 200" xmlns="http://www.w3.org/2000/svg"><g><g><g><g><g><line x1="51.52000045776367" y1="177.95999908447266" x2="46.52000045776367" y2="177.95999908447266" style="visibility: inherit;" fill="rgb(0, 0, 0)" stroke="rgb(204, 204, 204)" stroke-width="1px"></line><line x1="51.52000045776367" y1="163.1299991607666" x2="46.52000045776367" y2="163.1299991607666" style="visibility: inherit;" fill="rgb(0, 0, 0)" stroke="rgb(204, 204, 204)" stroke-width="1px"></line><line x1="51.52000045776367" y1="148.29999923706055" x2="46.52000045776367" y2="148.29999923706055" style="visibility: inherit;" fill="rgb(0, 0, 0)" stroke="rgb(204, 204, 204)" stroke-width="1px"></line><line x1="51.52000045776367" y1="133.4699993133545" x2="46.52000045776367" y2="133.4699993133545" style="visibility: inherit;" fill="rgb(0, 0, 0)" stroke="rgb(204, 204, 204)" stroke-width="1px"></line><line x1="51.52000045776367" y1="118.63999938964844" x2="46.52000045776367" y2="118.63999938964844" style="visibility: inherit;" fill="rgb(0, 0, 0)" stroke="rgb(204, 204, 204)" stroke-width="1px"></line><line x1="51.52000045776367" y1="103.80999946594238" x2="46.52000045776367" y2="103.80999946594238" style="visibility: inherit;" fill="rgb(0, 0, 0)" stroke="rgb(204, 204, 204)" stroke-width="1px"></line><line x1="51.52000045776367" y1="88.97999954223634" x2="46.52000045776367" y2="88.97999954223634" style="visibility: inherit;" fill="rgb(0, 0, 0)" stroke="rgb(204, 204, 204)" stroke-width="1px"></line><line x1="51.52000045776367" y1="74.14999961853029" x2="46.52000045776367" y2="74.14999961853029" style="visibility: inherit;" fill="rgb(0, 0, 0)" stroke="rgb(204, 204, 204)" stroke-width="1px"></line><line x1="51.52000045776367" y1="59.31999969482425" x2="46.52000045776367" y2="59.31999969482425" style="visibility: inherit;" fill="rgb(0, 0, 0)" stroke="rgb(204, 204, 204)" stroke-width="1px"></line><line x1="51.52000045776367" y1="44.48999977111819" x2="46.52000045776367" y2="44.48999977111819" style="visibility: inherit;" fill="rgb(0, 0, 0)" stroke="rgb(204, 204, 204)" stroke-width="1px"></line><line x1="51.52000045776367" y1="29.65999984741211" x2="46.52000045776367" y2="29.65999984741211" style="visibility: inherit;" fill="rgb(0, 0, 0)" stroke="rgb(204, 204, 204)" stroke-width="1px"></line><line x1="51.52000045776367" y1="14.829999923706055" x2="46.52000045776367" y2="14.829999923706055" style="visibility: inherit;" fill="rgb(0, 0, 0)" stroke="rgb(204, 204, 204)" stroke-width="1px"></line><line x1="51.52000045776367" y1="0" x2="46.52000045776367" y2="0" style="visibility: inherit;" fill="rgb(0, 0, 0)" stroke="rgb(204, 204, 204)" stroke-width="1px"></line></g><g transform="translate(41.52000045776367, 0)"><text style="text-anchor: end; visibility: hidden; font-family: &quot;Helvetica Neue&quot;, sans-serif; font-size: 12px; font-weight: 200;" x="0" y="177.95999908447266" dx="0em" dy="0.3em" fill="rgb(50, 49, 63)" stroke="none" stroke-width="1px">-0.1</text><text style="text-anchor: end; visibility: inherit; font-family: &quot;Helvetica Neue&quot;, sans-serif; font-size: 12px; font-weight: 200;" x="0" y="163.1299991607666" dx="0em" dy="0.3em" fill="rgb(50, 49, 63)" stroke="none" stroke-width="1px">0</text><text style="text-anchor: end; visibility: hidden; font-family: &quot;Helvetica Neue&quot;, sans-serif; font-size: 12px; font-weight: 200;" x="0" y="148.29999923706055" dx="0em" dy="0.3em" fill="rgb(50, 49, 63)" stroke="none" stroke-width="1px">0.1</text><text style="text-anchor: end; visibility: inherit; font-family: &quot;Helvetica Neue&quot;, sans-serif; font-size: 12px; font-weight: 200;" x="0" y="133.4699993133545" dx="0em" dy="0.3em" fill="rgb(50, 49, 63)" stroke="none" stroke-width="1px">0.2</text><text style="text-anchor: end; visibility: hidden; font-family: &quot;Helvetica Neue&quot;, sans-serif; font-size: 12px; font-weight: 200;" x="0" y="118.63999938964844" dx="0em" dy="0.3em" fill="rgb(50, 49, 63)" stroke="none" stroke-width="1px">0.3</text><text style="text-anchor: end; visibility: inherit; font-family: &quot;Helvetica Neue&quot;, sans-serif; font-size: 12px; font-weight: 200;" x="0" y="103.80999946594238" dx="0em" dy="0.3em" fill="rgb(50, 49, 63)" stroke="none" stroke-width="1px">0.4</text><text style="text-anchor: end; visibility: hidden; font-family: &quot;Helvetica Neue&quot;, sans-serif; font-size: 12px; font-weight: 200;" x="0" y="88.97999954223634" dx="0em" dy="0.3em" fill="rgb(50, 49, 63)" stroke="none" stroke-width="1px">0.5</text><text style="text-anchor: end; visibility: inherit; font-family: &quot;Helvetica Neue&quot;, sans-serif; font-size: 12px; font-weight: 200;" x="0" y="74.14999961853029" dx="0em" dy="0.3em" fill="rgb(50, 49, 63)" stroke="none" stroke-width="1px">0.6</text><text style="text-anchor: end; visibility: hidden; font-family: &quot;Helvetica Neue&quot;, sans-serif; font-size: 12px; font-weight: 200;" x="0" y="59.31999969482425" dx="0em" dy="0.3em" fill="rgb(50, 49, 63)" stroke="none" stroke-width="1px">0.7</text><text style="text-anchor: end; visibility: inherit; font-family: &quot;Helvetica Neue&quot;, sans-serif; font-size: 12px; font-weight: 200;" x="0" y="44.48999977111819" dx="0em" dy="0.3em" fill="rgb(50, 49, 63)" stroke="none" stroke-width="1px">0.8</text><text style="text-anchor: end; visibility: hidden; font-family: &quot;Helvetica Neue&quot;, sans-serif; font-size: 12px; font-weight: 200;" x="0" y="29.65999984741211" dx="0em" dy="0.3em" fill="rgb(50, 49, 63)" stroke="none" stroke-width="1px">0.9</text><text style="text-anchor: end; visibility: inherit; font-family: &quot;Helvetica Neue&quot;, sans-serif; font-size: 12px; font-weight: 200;" x="0" y="14.829999923706055" dx="0em" dy="0.3em" fill="rgb(50, 49, 63)" stroke="none" stroke-width="1px">1</text><text style="text-anchor: end; visibility: hidden; font-family: &quot;Helvetica Neue&quot;, sans-serif; font-size: 12px; font-weight: 200;" x="0" y="0" dx="0em" dy="0.3em" fill="rgb(50, 49, 63)" stroke="none" stroke-width="1px">1.1</text></g><line x1="51.52000045776367" y1="0" x2="51.52000045776367" y2="177.95999908447266" fill="rgb(0, 0, 0)" stroke="rgb(204, 204, 204)" stroke-width="1px"></line></g></g><g transform="translate(51, 0)" clip-path="url(#clip_0)"><clipPath id="clip_0"><rect width="278" height="177"></rect></clipPath><g><g><g><line x1="0" y1="0" x2="0" y2="177.95999908447266" fill="rgb(0, 0, 0)" stroke="rgb(60, 60, 60)" stroke-width="1px" opacity="0.25"></line><line x1="27.847999954223635" y1="0" x2="27.847999954223635" y2="177.95999908447266" fill="rgb(0, 0, 0)" stroke="rgb(60, 60, 60)" stroke-width="1px" opacity="0.25"></line><line x1="55.69599990844727" y1="0" x2="55.69599990844727" y2="177.95999908447266" fill="rgb(0, 0, 0)" stroke="rgb(60, 60, 60)" stroke-width="1px" opacity="0.25"></line><line x1="83.5439998626709" y1="0" x2="83.5439998626709" y2="177.95999908447266" fill="rgb(0, 0, 0)" stroke="rgb(60, 60, 60)" stroke-width="1px" opacity="0.25"></line><line x1="111.39199981689454" y1="0" x2="111.39199981689454" y2="177.95999908447266" fill="rgb(0, 0, 0)" stroke="rgb(60, 60, 60)" stroke-width="1px" opacity="0.25"></line><line x1="139.23999977111816" y1="0" x2="139.23999977111816" y2="177.95999908447266" fill="rgb(0, 0, 0)" stroke="rgb(60, 60, 60)" stroke-width="1px" opacity="0.25"></line><line x1="167.0879997253418" y1="0" x2="167.0879997253418" y2="177.95999908447266" fill="rgb(0, 0, 0)" stroke="rgb(60, 60, 60)" stroke-width="1px" opacity="0.25"></line><line x1="194.9359996795654" y1="0" x2="194.9359996795654" y2="177.95999908447266" fill="rgb(0, 0, 0)" stroke="rgb(60, 60, 60)" stroke-width="1px" opacity="0.25"></line><line x1="222.78399963378908" y1="0" x2="222.78399963378908" y2="177.95999908447266" fill="rgb(0, 0, 0)" stroke="rgb(60, 60, 60)" stroke-width="1px" opacity="0.25"></line><line x1="250.6319995880127" y1="0" x2="250.6319995880127" y2="177.95999908447266" fill="rgb(0, 0, 0)" stroke="rgb(60, 60, 60)" stroke-width="1px" opacity="0.25"></line><line x1="278.4799995422363" y1="0" x2="278.4799995422363" y2="177.95999908447266" fill="rgb(0, 0, 0)" stroke="rgb(60, 60, 60)" stroke-width="1px" opacity="0.25"></line></g><g><line x1="0" y1="177.95999908447266" x2="278.4799995422363" y2="177.95999908447266" fill="rgb(0, 0, 0)" stroke="rgb(60, 60, 60)" stroke-width="1px" opacity="0.25"></line><line x1="0" y1="163.1299991607666" x2="278.4799995422363" y2="163.1299991607666" fill="rgb(0, 0, 0)" stroke="rgb(60, 60, 60)" stroke-width="1px" opacity="0.25"></line><line x1="0" y1="148.29999923706055" x2="278.4799995422363" y2="148.29999923706055" fill="rgb(0, 0, 0)" stroke="rgb(60, 60, 60)" stroke-width="1px" opacity="0.25"></line><line x1="0" y1="133.4699993133545" x2="278.4799995422363" y2="133.4699993133545" fill="rgb(0, 0, 0)" stroke="rgb(60, 60, 60)" stroke-width="1px" opacity="0.25"></line><line x1="0" y1="118.63999938964844" x2="278.4799995422363" y2="118.63999938964844" fill="rgb(0, 0, 0)" stroke="rgb(60, 60, 60)" stroke-width="1px" opacity="0.25"></line><line x1="0" y1="103.80999946594238" x2="278.4799995422363" y2="103.80999946594238" fill="rgb(0, 0, 0)" stroke="rgb(60, 60, 60)" stroke-width="1px" opacity="0.25"></line><line x1="0" y1="88.97999954223634" x2="278.4799995422363" y2="88.97999954223634" fill="rgb(0, 0, 0)" stroke="rgb(60, 60, 60)" stroke-width="1px" opacity="0.25"></line><line x1="0" y1="74.14999961853029" x2="278.4799995422363" y2="74.14999961853029" fill="rgb(0, 0, 0)" stroke="rgb(60, 60, 60)" stroke-width="1px" opacity="0.25"></line><line x1="0" y1="59.31999969482425" x2="278.4799995422363" y2="59.31999969482425" fill="rgb(0, 0, 0)" stroke="rgb(60, 60, 60)" stroke-width="1px" opacity="0.25"></line><line x1="0" y1="44.48999977111819" x2="278.4799995422363" y2="44.48999977111819" fill="rgb(0, 0, 0)" stroke="rgb(60, 60, 60)" stroke-width="1px" opacity="0.25"></line><line x1="0" y1="29.65999984741211" x2="278.4799995422363" y2="29.65999984741211" fill="rgb(0, 0, 0)" stroke="rgb(60, 60, 60)" stroke-width="1px" opacity="0.25"></line><line x1="0" y1="14.829999923706055" x2="278.4799995422363" y2="14.829999923706055" fill="rgb(0, 0, 0)" stroke="rgb(60, 60, 60)" stroke-width="1px" opacity="0.25"></line><line x1="0" y1="0" x2="278.4799995422363" y2="0" fill="rgb(0, 0, 0)" stroke="rgb(60, 60, 60)" stroke-width="1px" opacity="0.25"></line></g></g></g><g><g><line x1="0" y1="163.1299991607666" x2="278.4799995422363" y2="163.1299991607666" fill="rgb(0, 0, 0)" stroke="rgb(153, 153, 153)" stroke-width="1.5px"></line></g></g><g><g><line x1="27.847999954223635" y1="0" x2="27.847999954223635" y2="177.95999908447266" fill="rgb(0, 0, 0)" stroke="rgb(153, 153, 153)" stroke-width="1.5px"></line></g></g><g><g><g><g><g><path style="fill: none;" stroke="rgb(204, 51, 17)" stroke-width="2px" d="M27.884202354164124,147.33275992727184L27.932936354084017,147.45157692684478L28.66951595287323,143.90774806069902L29.36850075172424,141.35226795917325L30.33204155014038,138.4303858832414L30.79014114938736,135.0475911590885L31.66456834794998,130.45187113767327L31.84001074766159,127.64614056398887L32.40950234672546,124.80605633215332L32.88988034593582,123.05950095912628L33.06253794565201,120.55829385143292L33.207347545413974,120.4378486682406L33.41899234506607,118.61979059652165L34.886581942653656,116.13661096743442L35.88910994100571,112.91464443091719L36.66885393972397,111.56424307459493L37.42353473848343,111.0448789540964L37.85239393777847,109.00861079539408L38.08353233739852,107.11246903674284L39.29352793540955,106.25022848023856L39.53302073501587,104.23377459988355L40.25706873382568,104.81422332615553L41.13706553237915,102.6065215768866L41.26377393217087,99.1992227826463L41.28326753213882,98.57758787774904L41.54921593170166,97.5878453611822L41.70655713144303,99.05723369877454L42.6004779299736,97.59196769108286L42.7244015297699,98.70128904434341L42.89845152948379,99.00830191384672L42.944400729408265,98.13331440944614L43.14351392908097,98.59368008642579L43.16996952903747,98.86984820082331L43.46794312854767,98.91529121327001L43.51528472846985,98.74740496848929L44.17110512739182,96.9116960454615L45.94780752447129,95.6325021572343L46.10236392421722,94.39606084987217L46.199831924057,93.45037083123673L47.806661521415705,92.00800604505908L48.023875921058654,91.61564013793482L48.64349392004013,90.21249401344215L48.77716431982041,88.56910187892123L48.88159431964874,88.85993640060003L48.97210031949997,88.83179104864615L49.08488471931457,88.92464460082064L49.42602271875381,89.78134143729373L49.62235111843109,89.3303532748834L49.892476717987066,89.8993306951725L50.26424751737594,91.28303429877889L50.43133551710129,89.67123940700813L51.017535916137696,87.82425281089031L51.23753511577606,86.10724048949466L51.32664871562958,86.02953872559101L52.29715151403427,85.37607025063168L52.305505914020536,86.75051933654638L52.60487191352845,85.83402406984102L52.93487071298599,84.54113553533286L53.01702231285095,85.09014446990479L54.93992670969009,82.93763540183063L55.0151163095665,83.13898620311542L55.3270139090538,83.25441174042872L55.391064308948515,84.57913321713212L55.54283590869903,82.97434973337707L56.6344775069046,82.12460588470286L57.49776550548553,79.93643216199058L58.00738390464783,82.17291281639514L59.07674710289001,81.01577376227286L59.508391102180475,80.38814624185588L59.558517502098084,79.4158245601699L60.81167750003815,77.65911141874011L61.22661269935608,76.87529950157779L63.68141389532089,75.50692187652676L65.53052109228135,74.36747648799832L66.33672069095611,74.51672883153267L66.44950509077071,74.39500871669505L67.31557788934707,73.93502797605804L68.55759868730544,73.36245395905154L68.887597486763,71.77588569001954L70.0572134848404,70.4301791356668L70.26050388450624,71.06200244143946L70.48885748413086,70.04219913710159L71.44404388256073,69.04219815033866L73.94061707845688,68.27918191933759L74.03251547830581,67.59519394827704L74.68415867723465,68.2144179120146L75.53073787584304,69.7286351705022L76.19073547475814,69.29385018864872L76.9927578734398,67.98313090591115L77.49541427261353,66.74750382962262L77.87553947198867,66.99102773146589L78.19857627145768,65.7912951404087L78.48123347099305,65.29656602248636L79.0869274699974,64.4619625699643L82.55818066429138,64.22510515684147L82.67374986410141,62.69427637399478L82.81438226387023,62.32199552260404L82.91324266370773,63.166737441283644L83.39222826292038,61.97226221292685L83.79880906225205,61.3709237669278L83.99513746192932,61.581631855331366L84.67880586080551,60.612229554129485L84.93500746038437,60.0296830220458L85.36943625967027,60.20054288555313L86.40120465797423,59.88700385842172L86.78689945734024,60.28421637090953L87.7295542557907,59.75733033081761L87.99550265535355,58.90727254678953L88.48145025455476,57.53256375133499L88.55246265443802,57.35323868245716L88.60398145435333,57.461051986675244L88.84486665395737,56.69185866923199L88.85739825393676,56.76058458983363L89.08435945356369,58.00058351369397L89.16651105342865,58.71399511630217L89.30157385320663,58.774624875377256L89.66081305261612,58.053776436862506L89.67891425258637,59.74583794473665L91.17574425012589,58.46623328564458L92.57371384782792,57.537608121479536L92.77978904748916,56.760329204742575L93.49130544631959,55.872002211123046L95.54370304294586,55.25052039776892L95.60218384284973,56.25377606233181L95.8235754424858,55.7937429462426L96.78850864089965,55.36901307207077L97.51255663970949,53.81671138432985L97.66432823945999,54.44680486573883L98.24635143850327,52.96525930199209L98.93837423736572,53.072161106913484L99.86292783584594,52.73238546583194L100.1316610354042,52.980081002913096L101.45861823322296,53.716968924361666L102.06709703222275,52.52146718181433L102.7591198310852,52.05539160410588L102.77443623106004,52.08361793615666L103.02089103065491,52.51219606773061L103.48595262989043,53.60385007395833L104.32139262851715,53.493600644130254L104.34506342847824,52.82758667094866L105.92543742588043,52.4952953838804L106.06467742565155,51.08685053614879L106.76366222450257,50.497792961710644L106.93910462421418,49.78008802984172L107.04631942403793,48.92306806401811L108.25909982204436,50.28184761293603L108.51669382162093,49.428440519481L110.08035901905059,49.05048948772043L110.7417490179634,48.7761666004036L110.84617901779175,49.1705215131139L111.17200061725617,48.79697758445403L112.11744021570206,48.4798646034956L112.16199701562881,48.74983799678742L113.97072461265564,48.51016465138693L114.14895181236267,47.30179303363752L114.98021461099624,47.13180463559482L115.18907461065292,46.212551845839045L115.87831260951995,47.33105040057268L116.01337540929794,47.56861031674066L116.30160220882416,47.038562232120825L116.90590380783081,45.48148370272196L117.59096460670472,45.58935219890398L117.8889382062149,46.51482981340993L117.97665940607071,46.22775282386317L118.25653180561066,46.78034901265184L118.26627860559464,47.39854977655153L118.53083460515975,47.97843291272562L118.55729020511627,46.4016468156959L118.82184620468139,46.14175767672171L119.24235100399018,46.541286591392804L119.29108500391007,45.24228905286307L120.38551140211105,45.35765740183959L120.4913338019371,45.41166055394294L121.5370262002182,44.03916145813173L122.22626419908524,44.51940525146037L122.52702259859086,43.65279406946627L122.76094579820634,44.25245716675042L123.16056459754944,43.77479908441427L123.94170099626541,44.630512326021574L124.92055819465637,43.8943823507596L125.63625179347991,44.7137181077608L126.31017339237212,45.60026255881584L126.39928699222565,44.75988429866925L126.77384259160995,44.090562684102196L127.58004219028473,44.577803603134726L127.92118018972397,45.41339100921567L128.4238365888977,43.930605701478925L128.44054538887025,43.85336443666853L128.68143058847429,47.40945492145252L129.72712298675538,45.47270010698165L129.73547738674165,45.16132685469273L130.75471418506623,45.599435668449246L130.98167538469315,43.177028009854894L132.0329373829651,42.8272104279491L132.15825338275909,42.54487594807557L132.3448349824524,40.69569111866963L133.52419778051376,39.47293022828438L133.92242417985918,40.17325266864779L134.3025493792343,38.749476020014924L135.22571057771682,39.33388801387039L135.63646857704163,41.078790061504634L136.07507457632065,40.69627100080828L136.35912417585374,40.97568798946847L136.60000937545777,40.58013956905734L136.67102177534105,40.033917007104435L137.45772777404784,39.68909166646992L137.81000497346878,39.696738549494086L138.0494977730751,38.79569445511635L138.17063657287596,38.62224123440137L138.41848377246856,40.20374146212791L139.15784817125322,39.81928292680564L139.245569371109,40.554722526708616L139.44189777078628,40.37908320411546L139.65632737043381,39.727582193172594L140.33721096931458,39.642014598570626L140.39429936922073,39.93866938322745L141.1378409679985,39.990227458815525L141.2756885677719,39.75783397262211L142.9034041650963,39.22042121268825L143.22644096456526,38.927974374349304L144.16909576301575,38.592043442104796L144.2387157629013,38.41269291286767L144.510233762455,37.89929899660581L144.52694256242754,37.79392108687284L147.66819695726394,37.43664389937334L147.78794335706712,37.681461580235066L148.68604135559082,38.41507413054265L148.69718055557252,38.82850080230992L150.31932655290603,38.19309371806506L151.51818295093534,37.82294464320415L152.05564935005188,38.17642892817946L152.45109094940187,37.06843755910606L153.8379213471222,36.0120834511747L155.23032134483338,36.920652443916026L155.37373854459761,36.7510707664174L155.65918054412842,36.98113752073101L157.72689454072952,36.348214900283466L158.04157694021225,35.72836992910365L158.24347493988037,37.22215669194742L158.77397933900832,37.77815548079721L159.26688893819806,36.57706354744096L162.50700373287202,36.015838778395505L162.81333173236848,35.553528308407095L162.8175089323616,35.29138109818166L163.53181013118746,35.45485932189081L163.5401645311737,34.828595342503434L163.68636653093338,34.20207820572236L163.7754801307869,34.63656125291968L166.1021805269623,35.23231619401241L166.11471212694167,35.00478680465238L166.87496252569198,35.44773575893663L168.43584292312624,35.80941935420785L168.9677397222519,35.82482118835688L169.0220433221626,35.697062680080734L169.10001772203447,35.16108922334823L169.6764713210869,36.972038223683995L169.74887612096785,36.14397913279697L170.53279731967925,36.01327033291349L170.6873537194252,35.71977967494706L170.79735331924437,35.97181833889678L171.25266811849596,36.51013163890147L172.10899411708832,34.74154110793603L172.19671531694414,35.2890034049596L172.26076571683882,35.3470809566077L172.97924411565782,35.25613266268982L173.9121521141243,34.73662703177908L176.36695331008912,34.37605255115099L176.63150930965423,34.09496479012063L177.2023933087158,35.005411666277155L177.52125290819166,33.616197462069266L182.93351169929505,33.127301785080704L183.63388889814377,33.24114813362107L183.72996449798583,32.57863107544182L183.849710897789,33.209386931359404L184.30781049703597,31.879929431986994L184.3969240968895,31.77261670516384L184.60299929655076,32.2542156637991L187.5883048916435,31.821546650950012L187.75817769136427,31.882538541456938L189.51956368846893,31.464722941538042L189.6518416882515,32.04255468833583L190.72398968648912,32.34843353141284L191.45360728528976,32.539255084371945L191.5106956851959,32.04596716218802L191.53018928516389,30.785442488180678L191.74879608480455,32.07537437592026L192.24031328399658,32.27828553548483L192.49790728357314,31.821294007310343L192.73043808319093,31.702138082966655L193.26929688230516,31.29181030874051L193.30549928224565,31.16958048764897L193.3876508821106,30.85651184232873L193.77752288146974,31.23871094017548L193.86385168132784,30.77790198541885L194.30385008060455,31.940338562178255L195.18941647914886,31.347323382075615L196.2406784774208,31.11802331991774L196.53586727693556,30.8966071734161L196.54561407691955,30.163737597339917L196.60687967681883,30.60302036138947L196.79624607650757,30.515044787901275L197.4214336754799,31.504152305536564L197.45206647542952,31.393815667032356L197.50219287534716,30.716466798341003L198.25130407411575,31.33008174050579L198.4921892737198,30.75869298425502L199.1076300727081,31.131562205708292L199.29699647239684,31.854591394683837L199.45712247213362,31.606451607099842L199.53370447200774,32.493619541391354L199.75788087163926,32.05616729668225L200.59053607027053,30.952902263500818L200.76458606998443,30.50273451943417L202.13749246772764,29.923164036443865L202.43825086723328,30.593922102852503L203.64824646524428,29.749085436625165L204.0715360645485,28.40182464747653L204.35976286407472,29.796090371251097L204.73988806344985,32.31552772606878L204.93760886312484,32.09420360469633L205.3915312623787,31.492537190334332L205.52102446216585,34.5239315045626L207.28241045927047,33.45070341738804L207.75721885849,31.822389708098456L207.88392725828172,35.21594958673762L208.02177485805512,32.778046080093816L208.21114125774383,31.97174378729798L208.97139165649412,30.608568969699093L209.0660748563385,34.58300564679715L209.32645365591048,33.69064139571057L209.3654408558464,31.821082772900752L210.80518245347977,30.17981900310221L211.5932808521843,30.004548919126506L211.66707805206298,29.907345836385815L212.29505045103073,29.252504488600977L213.64289364881517,30.69691198021988L213.94225964832304,30.533236115062863L214.39061244758605,30.2152556022491L214.49086524742128,30.010893559870425L216.03225204488754,29.66038680018852L216.06984684482575,29.36923787756581L216.11997324474336,29.56836896522242L216.34414964437485,29.56884849962364L216.61706004392622,29.66263906316334L216.76883164367675,29.056010243648615L216.95541324337006,28.70074503380414L217.87857444185258,29.243369616873196L217.9064224418068,29.610637901351197L218.68198924053192,29.750634866885832L219.04401323993682,29.273343736254645L219.3392020394516,28.761568689868227L219.44363203927992,28.40840105025495L219.5995808390236,29.473676110513082L220.46704603759767,28.685877095133037L220.72881723716736,28.27898733982147L220.85691803695678,28.54772427018608L221.15071443647386,28.228705844136954L221.53780163583755,28.367445212243155L221.98476203510285,28.730398282866446L222.00564803506853,28.855363824600914L222.01121763505935,28.82026825816382L223.9104512319374,28.847017760382755L224.03019763174058,28.617531011637567L225.85145682874682,28.406277735447276L225.86538082872391,28.75970503180821L226.06727882839203,28.81778314131674L227.84676602546693,28.66370441032609L229.34359602300646,27.663192353252697L229.5260004227066,28.23015205168994L229.8239740222168,27.888837288454283L231.0451088202095,27.71730567159085L232.10890241846084,27.626245598620983L234.2350972149658,27.75097095452054L235.0259804136658,27.666690458620394L238.4415376080513,28.286358459054355L238.4540692080307,28.502002970540616L238.63090400774004,27.374201614079624L241.02304720380783,26.963840374142677L241.29456520336151,27.17605097357483L241.53962760295866,26.584132039025548L241.72063960266112,26.682150365143087L244.57366719797136,27.31215429954071L246.13037039541246,28.46367567866463L246.78897559432983,28.253361823344022L246.81821599428176,28.448321920727153L247.31251799346924,28.573681236502978L247.50884639314654,27.22432647549772L247.7706175927162,27.757014196305278L248.05745199224472,27.642504213778466L248.61719679132463,27.43975096466758L250.95085918748856,26.757499176013567L252.862624384346,27.530449033914465L252.86819398433684,27.66723301894072L253.63679878307343,28.16555635705285L254.7548959812355,27.607867024254773L254.81198438114166,27.298548162261653L256.58033237823486,26.859171496048674L257.0203307775116,27.11641060499224L257.31691197702406,26.599609085274324L257.4686835767746,26.376995495343124L257.58842997657774,26.168190170121562L257.7429863763237,27.01710795064008L258.0702003757858,26.435722941121384L258.57981877494814,26.758418781225345L260.79094997131347,26.65714433572063L263.05499236759186,30.099117439551833L263.55904116676334,28.34995810267023L265.0168839643669,27.360046917577932L265.02245356435776,26.5667830478952L265.20903516405104,26.549011638649205L266.31460076223374,26.408841433309505L266.6849791616249,26.237395739368964L267.21826836074825,25.79013590829919L268.9128191579628,25.715917298182603L268.95876835788727,25.514261048520837L269.9710431562233,25.379474347687733L269.982182356205,25.313820184470416L270.07686555604937,25.954528720066662L270.10332115600585,25.55638330931376L270.628255955143,25.579537382314697L271.57369555358883,25.461811625059738L271.62242955350877,25.793293199258642L271.6266067535019,25.902893911910837L271.79787195322035,25.795183495172097L271.93432715299605,25.647887932600185L271.98445355291364,26.316340885295716L272.5609071519661,25.223046650597183L272.63191955184936,24.88206985543377L273.3197651507187,25.510672071797927L273.424195150547,25.705243864458396L274.0131803495788,25.197966397782352L274.37520434898374,25.16126661151762L274.5729251486588,26.894480197354113L276.1853243460083,26.970726222046466L276.92329634479523,26.592145242452915L277.88265994321824,25.85531865114666L278.7751883417511,25.482010664167746" fill="none"></path></g></g></g></g><g opacity="0.2"><g><g><g><path style="fill: none;" stroke="rgb(204, 51, 17)" stroke-width="2px" d="M27.884202354164124,147.33275992727184L27.932936354084017,147.52286712658855L28.66951595287323,140.50567234919907L29.36850075172424,138.34702335977892L30.33204155014038,134.61557664490482L30.79014114938736,130.36796824948436L31.66456834794998,123.87991797552911L31.84001074766159,123.5553584525435L32.40950234672546,120.61748374815706L32.88988034593582,120.46606978073056L33.06253794565201,116.82916895427081L33.207347545413974,120.2578363508202L33.41899234506607,115.89863976398773L34.886581942653656,112.41670633120192L35.88910994100571,108.08548192685704L36.66885393972397,109.53959344777287L37.42353473848343,110.2660525508385L37.85239393777847,105.9547255656055L38.08353233739852,104.26854525687828L39.29352793540955,104.95694645768437L39.53302073501587,101.20920436647408L40.25706873382568,105.68487731565098L41.13706553237915,99.29501254020307L41.26377393217087,94.08831495398842L41.28326753213882,97.645139938718L41.54921593170166,96.1032358071317L41.70655713144303,101.26131244540103L42.6004779299736,95.3940709290738L42.7244015297699,100.36527005239249L42.89845152948379,99.46882104842031L42.944400729408265,96.82083344300067L43.14351392908097,99.28422851029792L43.16996952903747,99.28410033945069L43.46794312854767,98.98345572868506L43.51528472846985,98.4955756085334L44.17110512739182,94.15813270825551L45.94780752447129,93.71371134468474L46.10236392421722,92.54139890030685L46.199831924057,92.03183580855081L47.806661521415705,89.84445887061283L48.023875921058654,91.0270912780352L48.64349392004013,88.10777482839129L48.77716431982041,86.10401367832608L48.88159431964874,89.29618818299231L48.97210031949997,88.78957302072264L49.08488471931457,89.06392492906788L49.42602271875381,91.0663866919232L49.62235111843109,88.6538710312932L49.892476717987066,90.752796825587L50.26424751737594,93.35858970416054L50.43133551710129,87.25354706937154L51.017535916137696,85.053772916727L51.23753511577606,83.5317220074087L51.32664871562958,85.91298607973569L52.29715151403427,84.39586753819368L52.305505914020536,88.81219296541714L52.60487191352845,84.45928116978351L52.93487071298599,82.60180273357106L53.01702231285095,85.91365787176257L54.93992670969009,79.70887179971966L55.0151163095665,83.44101240504258L55.3270139090538,83.42755004639868L55.391064308948515,86.56621543218718L55.54283590869903,80.56717450774455L56.6344775069046,80.84999011169158L57.49776550548553,76.65417157792218L58.00738390464783,85.52763379800196L59.07674710289001,79.28006518108943L59.508391102180475,79.44670496123037L59.558517502098084,77.95734203764097L60.81167750003815,75.02404170659544L61.22661269935608,75.69958162583433L63.68141389532089,73.4543554389502L65.53052109228135,72.65830840520563L66.33672069095611,74.7406073468342L66.44950509077071,74.2124285444386L67.31557788934707,73.24505686510248L68.55759868730544,72.5035929335418L68.887597486763,69.3960332864715L70.0572134848404,68.41161930413774L70.26050388450624,72.00973740009842L70.48885748413086,68.5124941805948L71.44404388256073,67.54219667019426L73.94061707845688,67.134657572836L74.03251547830581,66.56921199168622L74.68415867723465,69.14325385762096L75.53073787584304,71.9999610582336L76.19073547475814,68.6416727158685L76.9927578734398,66.01705198180483L77.49541427261353,64.89406321518985L77.87553947198867,67.35631358423076L78.19857627145768,63.99169625382298L78.48123347099305,64.55447234560282L79.0869274699974,63.21005739118121L82.55818066429138,63.8698190371572L82.67374986410141,60.398033199724765L82.81438226387023,61.76357424551796L82.91324266370773,64.43385031930303L83.39222826292038,60.180549370391674L83.79880906225205,60.46891609792921L83.99513746192932,61.897693987936705L84.67880586080551,59.15812610232662L84.93500746038437,59.155863223920306L85.36943625967027,60.45683268081417L86.40120465797423,59.41669531772462L86.78689945734024,60.88003513964124L87.7295542557907,58.96700127067973L87.99550265535355,57.63218587074746L88.48145025455476,55.47050055815318L88.55246265443802,57.08425107914037L88.60398145435333,57.62277194300239L88.84486665395737,55.5380686930671L88.85739825393676,56.86367347073612L89.08435945356369,59.860581899484515L89.16651105342865,59.784112520214435L89.30157385320663,58.86556951398987L89.66081305261612,56.97250377909042L89.67891425258637,62.28393020654791L91.17574425012589,56.54682629700645L92.57371384782792,56.14467037523197L92.77978904748916,55.59441082963714L93.49130544631959,54.53951172069381L95.54370304294586,54.318297677737775L95.60218384284973,57.75865955917608L95.8235754424858,55.1036932721088L96.78850864089965,54.73191826081303L97.51255663970949,51.488258852718474L97.66432823945999,55.39194508785228L98.24635143850327,50.742940956371996L98.93837423736572,53.23251381429557L99.86292783584594,52.22272200420959L100.1316610354042,53.35162430853485L101.45861823322296,54.822300806534514L102.06709703222275,50.728214567993305L102.7591198310852,51.356278237543194L102.77443623106004,52.125957434232774L103.02089103065491,53.1550632650915L103.48595262989043,55.2413310832999L104.32139262851715,53.32822649938818L104.34506342847824,51.82856571117625L105.92543742588043,51.99685845327805L106.06467742565155,48.974183264551385L106.76366222450257,49.61420660005342L106.93910462421418,48.703530632038365L107.04631942403793,47.63753811528275L108.25909982204436,52.32001693631288L108.51669382162093,48.14832987929847L110.08035901905059,48.483562940079565L110.7417490179634,48.364682269428414L110.84617901779175,49.762053882179345L111.17200061725617,48.23666169146421L112.11744021570206,48.00419513205796L112.16199701562881,49.15479808672515L113.97072461265564,48.15065463328622L114.14895181236267,45.48923560701337L114.98021461099624,46.87682203853069L115.18907461065292,44.833672661205384L115.87831260951995,49.00879823267314L116.01337540929794,47.924950190992604L116.30160220882416,46.243490105191086L116.90590380783081,43.14586590862362L117.59096460670472,45.75115494317697L117.8889382062149,47.90304623516886L117.97665940607071,45.79713733954304L118.25653180561066,47.60924329583489L118.26627860559464,48.32585092240106L118.53083460515975,48.84825761698676L118.55729020511627,44.036467670151325L118.82184620468139,45.75192396826037L119.24235100399018,47.14057996339946L119.29108500391007,43.29379274506849L120.38551140211105,45.530709925304336L120.4913338019371,45.49266528209799L121.5370262002182,41.980412814414905L122.22626419908524,45.23977094145337L122.52702259859086,42.3528772964751L122.76094579820634,45.15195181267654L123.16056459754944,43.05831196091006L123.94170099626541,45.91408218843253L124.92055819465637,42.79018738786661L125.63625179347991,45.94272174326261L126.31017339237212,46.93007923539838L126.39928699222565,43.4993169084494L126.77384259160995,43.0865802622516L127.58004219028473,45.308664981683506L127.92118018972397,46.66677211833712L128.4238365888977,41.70642773987382L128.44054538887025,43.73750253945289L128.68143058847429,52.743590648628484L129.72712298675538,42.567567885275395L129.73547738674165,44.69426697625934L130.75471418506623,46.25659888908402L130.98167538469315,39.54341652196334L132.0329373829651,42.302484055090446L132.15825338275909,42.121374228265296L132.3448349824524,37.921913874560715L133.52419778051376,37.63878889270657L133.92242417985918,41.22373632919292L134.3025493792343,36.61381104706564L135.22571057771682,40.21050600465358L135.63646857704163,43.696143132955996L136.07507457632065,40.12249240976374L136.35912417585374,41.394813472458765L136.60000937545777,39.986816938440626L136.67102177534105,39.21458316417514L137.45772777404784,39.17185365551816L137.81000497346878,39.70820887403036L138.0494977730751,37.44412831354978L138.17063657287596,38.36206140332891L138.41848377246856,42.5759918037177L139.15784817125322,39.24259512382221L139.245569371109,41.65788192656308L139.44189777078628,40.11562422022578L139.65632737043381,38.750330676758296L140.33721096931458,39.513663206667644L140.39429936922073,40.38365156021271L141.1378409679985,40.067564572197654L141.2756885677719,39.40924374333193L142.9034041650963,38.41430207278748L143.22644096456526,38.48930411684094L144.16909576301575,38.08814704373802L144.2387157629013,38.14366711901201L144.510233762455,37.12920812221299L144.52694256242754,37.635854222273366L147.66819695726394,36.900728118124135L147.78794335706712,38.04868810152769L148.68604135559082,39.51549295600401L148.69718055557252,39.448640809960835L150.31932655290603,37.239983091697724L151.51818295093534,37.26772103091278L152.05564935005188,38.706655355642425L152.45109094940187,35.406450505496L153.8379213471222,34.427552289277656L155.23032134483338,38.28350593302801L155.37373854459761,36.49669825016943L155.65918054412842,37.3262376522014L157.72689454072952,35.39883096961219L158.04157694021225,34.7986024723339L158.24347493988037,39.46283683621303L158.77397933900832,38.61215366407194L159.26688893819806,34.77542564740659L162.50700373287202,35.1740016248273L162.81333173236848,34.860062603424495L162.8175089323616,34.89816028284352L163.53181013118746,35.7000766574545L163.5401645311737,33.88919937342237L163.68636653093338,33.26230250055076L163.7754801307869,35.2882858237156L166.1021805269623,36.12594860565153L166.11471212694167,34.66349272061237L166.87496252569198,36.11215919036297L168.43584292312624,36.351944747114686L168.9677397222519,35.8479239395804L169.0220433221626,35.50542491766649L169.10001772203447,34.3571290382495L169.6764713210869,39.68846172418765L169.74887612096785,34.90189049646645L170.53279731967925,35.81720713308826L170.6873537194252,35.2795436879974L170.79735331924437,36.3498763348214L171.25266811849596,37.3176015889085L172.10899411708832,32.088655311487884L172.19671531694414,36.11019685049499L172.26076571683882,35.43419728407983L172.97924411565782,35.119710221812994L173.9121521141243,33.95736858541298L176.36695331008912,33.83519083020886L176.63150930965423,33.67333314857504L177.2023933087158,36.371081980511946L177.52125290819166,31.532376155757476L182.93351169929505,32.39395826959779L183.63388889814377,33.4119176564316L183.72996449798583,31.584855488172963L183.849710897789,34.15552071523578L184.30781049703597,29.885743182928337L184.3969240968895,31.611647614929126L184.60299929655076,32.97661410175195L187.5883048916435,31.17254313167635L187.75817769136427,31.97402637721737L189.51956368846893,30.837999541659684L189.6518416882515,32.90930230853249L190.72398968648912,32.807251796028396L191.45360728528976,32.825487413810635L191.5106956851959,31.306035278912105L191.53018928516389,28.894655477169636L191.74879608480455,34.01027220752965L192.24031328399658,32.582652274831645L192.49790728357314,31.13580671504863L192.73043808319093,31.52340419645114L193.26929688230516,30.67631864740136L193.30549928224565,30.986235756011666L193.3876508821106,30.386908874348393L193.77752288146974,31.812009586945607L193.86385168132784,30.08668855328395L194.30385008060455,33.68399342731735L195.18941647914886,30.457800611921613L196.2406784774208,30.77407322668094L196.53586727693556,30.564482953663656L196.54561407691955,29.0644332332256L196.60687967681883,31.261944507463824L196.79624607650757,30.38308142766894L197.4214336754799,32.98781358198951L197.45206647542952,31.22831070927603L197.50219287534716,29.700443495303972L198.25130407411575,32.25050415375293L198.4921892737198,29.90160984987895L199.1076300727081,31.690866037888128L199.29699647239684,32.939135178147154L199.45712247213362,31.234241925723865L199.53370447200774,33.82437144282861L199.75788087163926,31.39998892961856L200.59053607027053,29.298004713728687L200.76458606998443,29.827482903334186L202.13749246772764,29.05380831195839L202.43825086723328,31.600059202465474L203.64824646524428,28.48183043728409L204.0715360645485,26.380933463753536L204.35976286407472,31.887488956912904L204.73988806344985,36.09468375829536L204.93760886312484,31.762217422637633L205.3915312623787,30.59003756879136L205.52102446216585,39.07102297590498L207.28241045927047,31.84086128662628L207.75721885849,29.379919144163978L207.88392725828172,40.3062894046964L208.02177485805512,29.12119082012805L208.21114125774383,30.762290348104244L208.97139165649412,28.563806743300802L209.0660748563385,40.54466066244416L209.32645365591048,32.352095019080735L209.3654408558464,29.01674483868601L210.80518245347977,27.717923348404383L211.5932808521843,29.741643793162922L211.66707805206298,29.761541212274807L212.29505045103073,28.27024246692372L213.64289364881517,32.863523217648236L213.94225964832304,30.287722317327308L214.39061244758605,29.73828483302853L214.49086524742128,29.704350496302396L216.03225204488754,29.134626660665617L216.06984684482575,28.932514493631743L216.11997324474336,29.867065596707363L216.34414964437485,29.569567801225503L216.61706004392622,29.803324908472888L216.76883164367675,28.146067014376513L216.95541324337006,28.167847219037412L217.87857444185258,30.057306491476794L217.9064224418068,30.16154032806824L218.68198924053192,29.96063031518773L219.04401323993682,28.557407040307908L219.3392020394516,27.993906120288557L219.44363203927992,27.87864959083504L219.5995808390236,31.07158870090032L220.46704603759767,27.504178572062983L220.72881723716736,27.668652706854118L220.85691803695678,28.950829665732954L221.15071443647386,27.75017820506332L221.53780163583755,28.5755542644024L221.98476203510285,29.274827888801383L222.00564803506853,29.042812137202645L222.01121763505935,28.767624908508196L223.9104512319374,28.887142013711127L224.03019763174058,28.27330088851977L225.85145682874682,28.08939782116181L225.86538082872391,29.289845976349625L226.06727882839203,28.90490030557953L227.84676602546693,28.432586313840147L229.34359602300646,26.162424267642564L229.5260004227066,29.08059159934578L229.8239740222168,27.376865143600753L231.0451088202095,27.46000824629573L232.10890241846084,27.489655489166125L234.2350972149658,27.938058988369903L235.0259804136658,27.540269714770147L238.4415376080513,29.215860459705254L238.4540692080307,28.825469737769936L238.63090400774004,25.68249957938815L241.02304720380783,26.348298514237285L241.29456520336151,27.49436687272305L241.53962760295866,25.696253637201607L241.72063960266112,26.82917785431937L244.57366719797136,28.25716020113714L246.13037039541246,30.190957747350495L246.78897559432983,27.937891040363183L246.81821599428176,28.740762066801835L247.31251799346924,28.761720210166686L247.50884639314654,25.20029433398986L247.7706175927162,28.5560457775166L248.05745199224472,27.470739239988234L248.61719679132463,27.135621091001212L250.95085918748856,25.73412149303249L252.862624384346,28.689873820765797L252.86819398433684,27.87240899648009L253.63679878307343,28.913041364221044L254.7548959812355,26.77133302505763L254.81198438114166,26.834569869271945L256.58033237823486,26.200106496729177L257.0203307775116,27.502269268407645L257.31691197702406,25.824406805697436L257.4686835767746,26.043075110446352L257.58842997657774,25.854982182289177L257.7429863763237,28.290484621417818L258.0702003757858,25.563645426843323L258.57981877494814,27.2424625413812L260.79094997131347,26.505232667463588L263.05499236759186,35.262077095298565L263.55904116676334,25.726219097347894L265.0168839643669,25.875180139939403L265.02245356435776,25.37688724337113L265.20903516405104,26.522354524780212L266.31460076223374,26.198586125299926L266.6849791616249,25.980227198458124L267.21826836074825,25.11924616169449L268.9128191579628,25.604589383007806L268.95876835788727,25.211776674028215L269.9710431562233,25.17729429643805L269.982182356205,25.215338939644425L270.07686555604937,26.91559152346099L270.10332115600585,24.95916519318439L270.628255955143,25.61426849181612L271.57369555358883,25.285222989177328L271.62242955350877,26.29051556055697L271.6266067535019,26.067294980889073L271.79787195322035,25.633617870063972L271.93432715299605,25.426944588742344L271.98445355291364,27.319020314339014L272.5609071519661,23.5831052985493L272.63191955184936,24.37060466268872L273.3197651507187,26.45357539634415L273.424195150547,25.997101553449056L274.0131803495788,24.437050197768258L274.37520434898374,25.10621693212056L274.5729251486588,29.4943005761088L276.1853243460083,27.085095259084937L276.92329634479523,26.024273773062532L277.88265994321824,24.750078764187265L278.7751883417511,24.92204868369936" fill="none"></path></g></g></g></g></g></g><g transform="translate(51, 177)" clip-path="url(#clip_1)"><clipPath id="clip_1"><rect width="278" height="22"></rect></clipPath><g><g><line x1="0" y1="0" x2="0" y2="5" style="visibility: inherit;" fill="rgb(0, 0, 0)" stroke="rgb(204, 204, 204)" stroke-width="1px"></line><line x1="27.847999954223635" y1="0" x2="27.847999954223635" y2="5" style="visibility: inherit;" fill="rgb(0, 0, 0)" stroke="rgb(204, 204, 204)" stroke-width="1px"></line><line x1="55.69599990844727" y1="0" x2="55.69599990844727" y2="5" style="visibility: inherit;" fill="rgb(0, 0, 0)" stroke="rgb(204, 204, 204)" stroke-width="1px"></line><line x1="83.5439998626709" y1="0" x2="83.5439998626709" y2="5" style="visibility: inherit;" fill="rgb(0, 0, 0)" stroke="rgb(204, 204, 204)" stroke-width="1px"></line><line x1="111.39199981689454" y1="0" x2="111.39199981689454" y2="5" style="visibility: inherit;" fill="rgb(0, 0, 0)" stroke="rgb(204, 204, 204)" stroke-width="1px"></line><line x1="139.23999977111816" y1="0" x2="139.23999977111816" y2="5" style="visibility: inherit;" fill="rgb(0, 0, 0)" stroke="rgb(204, 204, 204)" stroke-width="1px"></line><line x1="167.0879997253418" y1="0" x2="167.0879997253418" y2="5" style="visibility: inherit;" fill="rgb(0, 0, 0)" stroke="rgb(204, 204, 204)" stroke-width="1px"></line><line x1="194.9359996795654" y1="0" x2="194.9359996795654" y2="5" style="visibility: inherit;" fill="rgb(0, 0, 0)" stroke="rgb(204, 204, 204)" stroke-width="1px"></line><line x1="222.78399963378908" y1="0" x2="222.78399963378908" y2="5" style="visibility: inherit;" fill="rgb(0, 0, 0)" stroke="rgb(204, 204, 204)" stroke-width="1px"></line><line x1="250.6319995880127" y1="0" x2="250.6319995880127" y2="5" style="visibility: inherit;" fill="rgb(0, 0, 0)" stroke="rgb(204, 204, 204)" stroke-width="1px"></line><line x1="278.4799995422363" y1="0" x2="278.4799995422363" y2="5" style="visibility: inherit;" fill="rgb(0, 0, 0)" stroke="rgb(204, 204, 204)" stroke-width="1px"></line></g><g transform="translate(0, 8)"><text style="text-anchor: middle; visibility: hidden; font-family: &quot;Helvetica Neue&quot;, sans-serif; font-size: 12px; font-weight: 200;" x="0" y="0" dx="0em" dy="0.95em" fill="rgb(50, 49, 63)" stroke="none" stroke-width="1px">-20k</text><text style="text-anchor: middle; visibility: inherit; font-family: &quot;Helvetica Neue&quot;, sans-serif; font-size: 12px; font-weight: 200;" x="27.847999954223635" y="0" dx="0em" dy="0.95em" fill="rgb(50, 49, 63)" stroke="none" stroke-width="1px">0</text><text style="text-anchor: middle; visibility: hidden; font-family: &quot;Helvetica Neue&quot;, sans-serif; font-size: 12px; font-weight: 200;" x="55.69599990844727" y="0" dx="0em" dy="0.95em" fill="rgb(50, 49, 63)" stroke="none" stroke-width="1px">20k</text><text style="text-anchor: middle; visibility: inherit; font-family: &quot;Helvetica Neue&quot;, sans-serif; font-size: 12px; font-weight: 200;" x="83.5439998626709" y="0" dx="0em" dy="0.95em" fill="rgb(50, 49, 63)" stroke="none" stroke-width="1px">40k</text><text style="text-anchor: middle; visibility: hidden; font-family: &quot;Helvetica Neue&quot;, sans-serif; font-size: 12px; font-weight: 200;" x="111.39199981689454" y="0" dx="0em" dy="0.95em" fill="rgb(50, 49, 63)" stroke="none" stroke-width="1px">60k</text><text style="text-anchor: middle; visibility: inherit; font-family: &quot;Helvetica Neue&quot;, sans-serif; font-size: 12px; font-weight: 200;" x="139.23999977111816" y="0" dx="0em" dy="0.95em" fill="rgb(50, 49, 63)" stroke="none" stroke-width="1px">80k</text><text style="text-anchor: middle; visibility: hidden; font-family: &quot;Helvetica Neue&quot;, sans-serif; font-size: 12px; font-weight: 200;" x="167.0879997253418" y="0" dx="0em" dy="0.95em" fill="rgb(50, 49, 63)" stroke="none" stroke-width="1px">100k</text><text style="text-anchor: middle; visibility: inherit; font-family: &quot;Helvetica Neue&quot;, sans-serif; font-size: 12px; font-weight: 200;" x="194.9359996795654" y="0" dx="0em" dy="0.95em" fill="rgb(50, 49, 63)" stroke="none" stroke-width="1px">120k</text><text style="text-anchor: middle; visibility: hidden; font-family: &quot;Helvetica Neue&quot;, sans-serif; font-size: 12px; font-weight: 200;" x="222.78399963378908" y="0" dx="0em" dy="0.95em" fill="rgb(50, 49, 63)" stroke="none" stroke-width="1px">140k</text><text style="text-anchor: middle; visibility: inherit; font-family: &quot;Helvetica Neue&quot;, sans-serif; font-size: 12px; font-weight: 200;" x="250.6319995880127" y="0" dx="0em" dy="0.95em" fill="rgb(50, 49, 63)" stroke="none" stroke-width="1px">160k</text><text style="text-anchor: middle; visibility: hidden; font-family: &quot;Helvetica Neue&quot;, sans-serif; font-size: 12px; font-weight: 200;" x="278.4799995422363" y="0" dx="0em" dy="0.95em" fill="rgb(50, 49, 63)" stroke="none" stroke-width="1px">180k</text></g><line x1="0" y1="0" x2="278.4799995422363" y2="0" fill="rgb(0, 0, 0)" stroke="rgb(204, 204, 204)" stroke-width="1px"></line></g></g></g></g></svg>