<svg viewBox="0 0 330 200" xmlns="http://www.w3.org/2000/svg"><g><g><g><g><g><line x1="51.52000045776367" y1="177.95999908447266" x2="46.52000045776367" y2="177.95999908447266" style="visibility: inherit;" fill="rgb(0, 0, 0)" stroke="rgb(204, 204, 204)" stroke-width="1px"></line><line x1="51.52000045776367" y1="161.7818173495206" x2="46.52000045776367" y2="161.7818173495206" style="visibility: inherit;" fill="rgb(0, 0, 0)" stroke="rgb(204, 204, 204)" stroke-width="1px"></line><line x1="51.52000045776367" y1="145.60363561456853" x2="46.52000045776367" y2="145.60363561456853" style="visibility: inherit;" fill="rgb(0, 0, 0)" stroke="rgb(204, 204, 204)" stroke-width="1px"></line><line x1="51.52000045776367" y1="129.42545387961647" x2="46.52000045776367" y2="129.42545387961647" style="visibility: inherit;" fill="rgb(0, 0, 0)" stroke="rgb(204, 204, 204)" stroke-width="1px"></line><line x1="51.52000045776367" y1="113.24727214466442" x2="46.52000045776367" y2="113.24727214466442" style="visibility: inherit;" fill="rgb(0, 0, 0)" stroke="rgb(204, 204, 204)" stroke-width="1px"></line><line x1="51.52000045776367" y1="97.06909040971236" x2="46.52000045776367" y2="97.06909040971236" style="visibility: inherit;" fill="rgb(0, 0, 0)" stroke="rgb(204, 204, 204)" stroke-width="1px"></line><line x1="51.52000045776367" y1="80.89090867476031" x2="46.52000045776367" y2="80.89090867476031" style="visibility: inherit;" fill="rgb(0, 0, 0)" stroke="rgb(204, 204, 204)" stroke-width="1px"></line><line x1="51.52000045776367" y1="64.71272693980826" x2="46.52000045776367" y2="64.71272693980826" style="visibility: inherit;" fill="rgb(0, 0, 0)" stroke="rgb(204, 204, 204)" stroke-width="1px"></line><line x1="51.52000045776367" y1="48.53454520485619" x2="46.52000045776367" y2="48.53454520485619" style="visibility: inherit;" fill="rgb(0, 0, 0)" stroke="rgb(204, 204, 204)" stroke-width="1px"></line><line x1="51.52000045776367" y1="32.356363469904124" x2="46.52000045776367" y2="32.356363469904124" style="visibility: inherit;" fill="rgb(0, 0, 0)" stroke="rgb(204, 204, 204)" stroke-width="1px"></line><line x1="51.52000045776367" y1="16.178181734952062" x2="46.52000045776367" y2="16.178181734952062" style="visibility: inherit;" fill="rgb(0, 0, 0)" stroke="rgb(204, 204, 204)" stroke-width="1px"></line><line x1="51.52000045776367" y1="0" x2="46.52000045776367" y2="0" style="visibility: inherit;" fill="rgb(0, 0, 0)" stroke="rgb(204, 204, 204)" stroke-width="1px"></line></g><g transform="translate(41.52000045776367, 0)"><text style="text-anchor: end; visibility: hidden; font-family: &quot;Helvetica Neue&quot;, sans-serif; font-size: 12px; font-weight: 200;" x="0" y="177.95999908447266" dx="0em" dy="0.3em" fill="rgb(50, 49, 63)" stroke="none" stroke-width="1px">-0.2</text><text style="text-anchor: end; visibility: inherit; font-family: &quot;Helvetica Neue&quot;, sans-serif; font-size: 12px; font-weight: 200;" x="0" y="161.7818173495206" dx="0em" dy="0.3em" fill="rgb(50, 49, 63)" stroke="none" stroke-width="1px">0</text><text style="text-anchor: end; visibility: hidden; font-family: &quot;Helvetica Neue&quot;, sans-serif; font-size: 12px; font-weight: 200;" x="0" y="145.60363561456853" dx="0em" dy="0.3em" fill="rgb(50, 49, 63)" stroke="none" stroke-width="1px">0.2</text><text style="text-anchor: end; visibility: inherit; font-family: &quot;Helvetica Neue&quot;, sans-serif; font-size: 12px; font-weight: 200;" x="0" y="129.42545387961647" dx="0em" dy="0.3em" fill="rgb(50, 49, 63)" stroke="none" stroke-width="1px">0.4</text><text style="text-anchor: end; visibility: hidden; font-family: &quot;Helvetica Neue&quot;, sans-serif; font-size: 12px; font-weight: 200;" x="0" y="113.24727214466442" dx="0em" dy="0.3em" fill="rgb(50, 49, 63)" stroke="none" stroke-width="1px">0.6</text><text style="text-anchor: end; visibility: inherit; font-family: &quot;Helvetica Neue&quot;, sans-serif; font-size: 12px; font-weight: 200;" x="0" y="97.06909040971236" dx="0em" dy="0.3em" fill="rgb(50, 49, 63)" stroke="none" stroke-width="1px">0.8</text><text style="text-anchor: end; visibility: hidden; font-family: &quot;Helvetica Neue&quot;, sans-serif; font-size: 12px; font-weight: 200;" x="0" y="80.89090867476031" dx="0em" dy="0.3em" fill="rgb(50, 49, 63)" stroke="none" stroke-width="1px">1</text><text style="text-anchor: end; visibility: inherit; font-family: &quot;Helvetica Neue&quot;, sans-serif; font-size: 12px; font-weight: 200;" x="0" y="64.71272693980826" dx="0em" dy="0.3em" fill="rgb(50, 49, 63)" stroke="none" stroke-width="1px">1.2</text><text style="text-anchor: end; visibility: hidden; font-family: &quot;Helvetica Neue&quot;, sans-serif; font-size: 12px; font-weight: 200;" x="0" y="48.53454520485619" dx="0em" dy="0.3em" fill="rgb(50, 49, 63)" stroke="none" stroke-width="1px">1.4</text><text style="text-anchor: end; visibility: inherit; font-family: &quot;Helvetica Neue&quot;, sans-serif; font-size: 12px; font-weight: 200;" x="0" y="32.356363469904124" dx="0em" dy="0.3em" fill="rgb(50, 49, 63)" stroke="none" stroke-width="1px">1.6</text><text style="text-anchor: end; visibility: hidden; font-family: &quot;Helvetica Neue&quot;, sans-serif; font-size: 12px; font-weight: 200;" x="0" y="16.178181734952062" dx="0em" dy="0.3em" fill="rgb(50, 49, 63)" stroke="none" stroke-width="1px">1.8</text><text style="text-anchor: end; visibility: hidden; font-family: &quot;Helvetica Neue&quot;, sans-serif; font-size: 12px; font-weight: 200;" x="0" y="0" dx="0em" dy="0.3em" fill="rgb(50, 49, 63)" stroke="none" stroke-width="1px">2</text></g><line x1="51.52000045776367" y1="0" x2="51.52000045776367" y2="177.95999908447266" fill="rgb(0, 0, 0)" stroke="rgb(204, 204, 204)" stroke-width="1px"></line></g></g><g transform="translate(51, 0)" clip-path="url(#clip_0)"><clipPath id="clip_0"><rect width="278" height="177"></rect></clipPath><g><g><g><line x1="0" y1="0" x2="0" y2="177.95999908447266" fill="rgb(0, 0, 0)" stroke="rgb(60, 60, 60)" stroke-width="1px" opacity="0.25"></line><line x1="30.94222217135959" y1="0" x2="30.94222217135959" y2="177.95999908447266" fill="rgb(0, 0, 0)" stroke="rgb(60, 60, 60)" stroke-width="1px" opacity="0.25"></line><line x1="61.88444434271918" y1="0" x2="61.88444434271918" y2="177.95999908447266" fill="rgb(0, 0, 0)" stroke="rgb(60, 60, 60)" stroke-width="1px" opacity="0.25"></line><line x1="92.82666651407877" y1="0" x2="92.82666651407877" y2="177.95999908447266" fill="rgb(0, 0, 0)" stroke="rgb(60, 60, 60)" stroke-width="1px" opacity="0.25"></line><line x1="123.76888868543836" y1="0" x2="123.76888868543836" y2="177.95999908447266" fill="rgb(0, 0, 0)" stroke="rgb(60, 60, 60)" stroke-width="1px" opacity="0.25"></line><line x1="154.71111085679797" y1="0" x2="154.71111085679797" y2="177.95999908447266" fill="rgb(0, 0, 0)" stroke="rgb(60, 60, 60)" stroke-width="1px" opacity="0.25"></line><line x1="185.65333302815753" y1="0" x2="185.65333302815753" y2="177.95999908447266" fill="rgb(0, 0, 0)" stroke="rgb(60, 60, 60)" stroke-width="1px" opacity="0.25"></line><line x1="216.59555519951715" y1="0" x2="216.59555519951715" y2="177.95999908447266" fill="rgb(0, 0, 0)" stroke="rgb(60, 60, 60)" stroke-width="1px" opacity="0.25"></line><line x1="247.5377773708767" y1="0" x2="247.5377773708767" y2="177.95999908447266" fill="rgb(0, 0, 0)" stroke="rgb(60, 60, 60)" stroke-width="1px" opacity="0.25"></line><line x1="278.4799995422363" y1="0" x2="278.4799995422363" y2="177.95999908447266" fill="rgb(0, 0, 0)" stroke="rgb(60, 60, 60)" stroke-width="1px" opacity="0.25"></line></g><g><line x1="0" y1="177.95999908447266" x2="278.4799995422363" y2="177.95999908447266" fill="rgb(0, 0, 0)" stroke="rgb(60, 60, 60)" stroke-width="1px" opacity="0.25"></line><line x1="0" y1="161.7818173495206" x2="278.4799995422363" y2="161.7818173495206" fill="rgb(0, 0, 0)" stroke="rgb(60, 60, 60)" stroke-width="1px" opacity="0.25"></line><line x1="0" y1="145.60363561456853" x2="278.4799995422363" y2="145.60363561456853" fill="rgb(0, 0, 0)" stroke="rgb(60, 60, 60)" stroke-width="1px" opacity="0.25"></line><line x1="0" y1="129.42545387961647" x2="278.4799995422363" y2="129.42545387961647" fill="rgb(0, 0, 0)" stroke="rgb(60, 60, 60)" stroke-width="1px" opacity="0.25"></line><line x1="0" y1="113.24727214466442" x2="278.4799995422363" y2="113.24727214466442" fill="rgb(0, 0, 0)" stroke="rgb(60, 60, 60)" stroke-width="1px" opacity="0.25"></line><line x1="0" y1="97.06909040971236" x2="278.4799995422363" y2="97.06909040971236" fill="rgb(0, 0, 0)" stroke="rgb(60, 60, 60)" stroke-width="1px" opacity="0.25"></line><line x1="0" y1="80.89090867476031" x2="278.4799995422363" y2="80.89090867476031" fill="rgb(0, 0, 0)" stroke="rgb(60, 60, 60)" stroke-width="1px" opacity="0.25"></line><line x1="0" y1="64.71272693980826" x2="278.4799995422363" y2="64.71272693980826" fill="rgb(0, 0, 0)" stroke="rgb(60, 60, 60)" stroke-width="1px" opacity="0.25"></line><line x1="0" y1="48.53454520485619" x2="278.4799995422363" y2="48.53454520485619" fill="rgb(0, 0, 0)" stroke="rgb(60, 60, 60)" stroke-width="1px" opacity="0.25"></line><line x1="0" y1="32.356363469904124" x2="278.4799995422363" y2="32.356363469904124" fill="rgb(0, 0, 0)" stroke="rgb(60, 60, 60)" stroke-width="1px" opacity="0.25"></line><line x1="0" y1="16.178181734952062" x2="278.4799995422363" y2="16.178181734952062" fill="rgb(0, 0, 0)" stroke="rgb(60, 60, 60)" stroke-width="1px" opacity="0.25"></line><line x1="0" y1="0" x2="278.4799995422363" y2="0" fill="rgb(0, 0, 0)" stroke="rgb(60, 60, 60)" stroke-width="1px" opacity="0.25"></line></g></g></g><g><g><line x1="0" y1="161.7818173495206" x2="278.4799995422363" y2="161.7818173495206" fill="rgb(0, 0, 0)" stroke="rgb(153, 153, 153)" stroke-width="1.5px"></line></g></g><g><g><line x1="30.94222217135959" y1="0" x2="30.94222217135959" y2="177.95999908447266" fill="rgb(0, 0, 0)" stroke="rgb(153, 153, 153)" stroke-width="1.5px"></line></g></g><g><g><g><g><g><path style="fill: none;" stroke="rgb(204, 51, 17)" stroke-width="2px" d="M33.41821878951178,-0.6696126957016304L34.07048083288405,3.56838444280811L34.516048832151625,13.411402708155322L34.86260172047085,13.741874653715655L35.19801540880839,15.581922046296796L35.38861949738397,20.28217217135648L35.49134767499288,24.264047304301727L36.02912349633111,27.126557137764536L36.13556474060058,23.168356503997103L36.45736385118273,25.097296212993513L36.84847353942871,30.85105670764483L36.90478838378059,29.503919798569513L36.91345220598856,28.924106963320526L37.03165149468316,27.749513567267087L37.10158091679043,29.10684358486847L37.49887904947069,23.046663315326015L37.55395620493571,30.95058208201519L37.63131176036411,25.128300727680283L37.6517336269972,31.567856821147103L37.74022838240729,28.73261044946696L37.75198642683241,-24.483110610441116L37.88441913772583,-0.7337315449479433L37.90545984880235,19.884341267519943L38.19693558165656,27.56071999608173L38.98658109146966,23.708852656232267L39.05527282469008,33.669436340305225L39.09859193572998,45.94445201316279L39.81273842344496,43.05069955912427L39.9092781566196,48.153006782756535L40.184663933944705,48.90544513114054L40.24407300051371,48.622686383361554L40.29048633377075,58.78641009279602L40.33071122259352,51.891011362251405L40.380837622511116,54.965269888733516L40.53245451115079,44.95540989801404L40.61971157767402,40.73918257807827L40.73976739969889,44.14234307845348L40.904998866093955,39.59531346478366L40.979260199305216,42.752784573804405L41.239793709988064,37.90980135816889L41.337571132049554,42.29218219889316L41.3771771764289,44.72400741794283L41.808511753497655,40.51851874984331L41.812224820158214,39.24100954089269L41.94527637549506,43.90985180385525L42.09194250858731,48.027569960070366L42.12845433074951,50.55889742414335L42.983078507122464,38.19499659463449L43.01649610706753,43.33958871780433L43.15511726239522,46.51245165797232L43.18358410679288,53.783495856946146L43.251038151126444,54.58775122528627L43.73621219477335,52.4741336224176L44.119895749698216,51.08064716886143L44.346392815992566,56.22391576838294L44.82166534854465,54.19100682787939L45.013507126007084,63.704668464473414L45.03578552597046,67.08840974719676L45.59274552505493,65.07937027538752L45.77716116919624,64.35431967762693L46.86818392295837,57.59755791589079L47.69000934382968,66.17197852419861L48.04832027657403,72.0816560778551L48.09844667649163,71.42914301706374L48.483367920303344,66.35433317325216L49.0353771638404,66.15380056577827L49.18204329693265,72.62615609319315L49.70187262941148,75.71730482215409L49.792223918151855,75.64346622354921L49.89371440687391,81.17979728935164L50.31824169506497,77.2084551834767L51.42782978212992,75.22497210081282L51.46867351539612,73.41287740645441L51.758292714920046,74.8903631183915L52.13455013652378,73.38690394517397L52.42788240270827,72.05833629079005L52.784336802122326,80.29362142982065L53.007739646199546,81.55485464844682L53.17668417925517,76.01484612558444L53.32025609013027,88.71479344043782L53.445881512145995,76.27482690464676L53.71507884503683,81.49995178964204L55.257858042500814,86.20904508256304L55.30922213130527,85.40136234756432L55.371725420091416,87.0700788691828L55.415663375574745,87.66281615797853L55.628545864113704,90.83419927549267L55.80924844159444,84.2355904038376L55.89650550811768,89.72070496826804L56.200358129840424,88.64731769567284L56.31422550743103,86.65978742202556L56.507304973780315,82.98547536586698L56.96586870635986,77.96601139605387L57.13728861718919,81.06224747951204L57.55624630538941,86.63579876002487L57.674445594084,91.67909985197952L57.890422304840094,91.06354086031749L57.92198337145488,90.93891455047951L57.944880615861685,86.05575036756156L58.051940704574584,87.78084024195157L58.057510304565426,86.23254267745729L58.15838194884407,90.40755709918196L58.19489377100627,94.6591543071504L58.254921682018704,105.9758163572998L58.41458354842292,99.18598391109218L58.422628526187474,97.63476443381577L59.08788630287171,89.67306253704615L59.7092061240726,92.44813772051211L59.800795101699826,94.56035910397793L60.11702461229112,92.74690512784782L61.029201321902804,94.80718961188283L61.055192788526746,99.64999826403698L61.153589055031674,98.6244233718082L61.582448254326714,98.15452687462718L61.904247364908855,100.35170598599223L61.971701409242414,94.86867847163727L62.230378386594985,98.84590889175772L62.5379440749783,100.7842165052727L62.94885678541395,103.8366113275033L63.0682937629954,99.05769181994032L63.65805251758152,99.2366475976221L63.928487539359196,104.06615136499514L64.23605322774252,106.62479215366362L64.24286051662021,111.45347528899548L64.35239598310683,112.03384739968739L64.5590900272115,105.5726201800986L64.93039669326782,103.47584278827725L64.94091704880609,106.6686852482337L65.64330549209595,108.27779898613029L65.70518993643867,105.24285756700138L66.01584984703912,104.89037480004642L66.09382424691094,98.72923459024902L66.14147526905484,101.08804586572458L66.68048877927991,107.55188442761293L66.79497500131394,107.16365375934726L67.48993731128269,106.75233432506136L67.7838884219106,106.79098934673159L67.83030175516764,110.00164331117979L67.97511135492961,109.3148296344733L68.39530673201666,107.60442844294603L68.41510975420634,106.14038439986052L69.21898868621827,110.67277603184338L69.29820077497695,103.89106473211336L69.66765090770298,102.5333262864382L69.76047757421705,107.76224836542553L70.06680557371352,110.55997506432423L70.12683348472595,103.3605342309359L70.25493428451539,110.00787906973493L70.52351277296277,112.72166956732222L70.82798423912897,117.23610512897093L70.96041695002238,113.46218490857109L70.99940414995828,111.45191866388663L71.12379188308716,107.36337768949927L71.12812379419115,103.15018178038326L71.24570423844231,104.97610721786876L71.25746228286744,106.96611724237877L71.3750427271186,106.5414484041111L71.56193374903361,106.51501910422448L71.58359330455356,104.259459621461L72.07000503708734,105.27241845275204L72.1170372147878,115.11385815987074L72.58178939180162,116.57543101781856L72.88811739129808,118.10488986404177L73.02178779107835,119.16161262121264L73.12575365757412,109.52863394287948L73.30336201283772,110.5309498220525L73.65053374560038,109.53743243420728L74.0855813893297,102.82603839548032L74.40366743325129,106.16369667380278L74.70318814387004,115.6559267325407L74.74279418824938,115.15041928634031L74.90926334353128,119.23722878525797L75.26757427627564,115.03730440658802L75.41919116491529,116.11557137631928L75.64259400899252,114.40852986700602L75.65002014231365,114.37182574080246L75.75708023102653,114.63279678141342L76.22183240804036,108.65373760846143L76.22554547470094,114.02676251726133L76.67853960728964,115.86341821360949L76.77941125156826,113.18275322996897L77.24663880635579,117.32559438930227L77.30233480626424,122.75572110974011L77.38525996168349,119.36886980910776L77.90942120526631,117.23043974396924L78.08641071608649,120.51536755720912L78.25535524914211,120.9313400978013L78.66564911513436,116.12331420472799L78.84820822594537,112.66589464546888L79.04314422562494,113.78506570497444L79.16938849208408,117.68488646175854L79.276448580797,120.72253875814638L79.30800964741177,123.23765096478155L79.65765675794813,125.12561092051163L79.81422440213521,128.2838909626111L79.9206656464047,131.24021581820938L79.97450511298285,126.95940055281818L80.0846594239129,123.92426600868141L80.41326582337274,122.04354365033939L80.45225302330864,125.35761433712084L80.53951008983188,120.72184728954463L80.63481213411967,120.67690327507636L80.93742706695556,116.12210424852105L80.96279968913608,118.64353399119169L81.2932626219262,121.31396792841393L81.35452822182549,123.32582792532486L82.07795737619188,122.59145885859259L82.221529287067,112.48049694263248L82.6404869752672,109.2704945638532L82.67142919743856,116.31960118679541L82.79210386390686,121.11015357576778L82.79952999722799,120.7772849436522L84.19564306159972,123.63270804392442L84.24886368373446,120.84629247942445L84.648018349745,126.35812003605909L84.65296910529243,125.9453048296273L85.37392288188511,118.79451966123858L85.90674794767592,119.70380756336343L86.14562190283881,123.06376332183126L86.32137372477213,125.91986220698854L86.93774279042562,125.35626324663296L87.55658723385281,127.4253307759959L87.62032821152582,130.86780111877158L87.74719132242839,128.6523333121457L88.66617532091776,126.38461831003396L88.8060341651323,126.6239877005302L88.89576660942924,125.42804671171625L89.131546342375,118.04343772056372L89.35061727534823,121.93490459838148L90.79066829520332,123.32953946134766L90.9268140727573,125.01653715402875L90.92867060608758,123.86704145695856L91.24613780556572,119.53146699398178L91.2498508722263,123.92218226811639L91.31482953878614,123.87885066348102L91.35443558316548,126.1671186613357L92.38852464813232,124.99146765449964L92.39409424812317,128.9161683077321L92.73198331423441,128.64558913686096L93.4257079353163,127.51657276517764L93.66210651270548,126.52180581721758L93.68624144599914,119.90113697340796L93.72089673483106,124.41497905221459L93.97709833440993,121.60938698735075L94.00927824546814,126.3112446051679L94.35768766711766,123.87598642643499L94.42637940033806,125.42214581358103L94.47526811136882,126.58037829071347L94.67763024436951,131.1819092715693L95.05821957707724,127.18943182937423L95.09720677701314,123.42661394429764L95.1256736214108,129.04301877477837L95.44499735421923,128.8307341559354L95.85962313131544,131.73340128539826L96.95064588507759,128.06299356548894L97.06822632932875,133.28067033449855L97.32195255113389,133.80738735664906L97.46366792867872,131.36379781733754L99.86911628028022,126.92509166172408L100.1803950353241,132.8994988831265L100.22309530192058,131.8089586420507L100.27631592405531,132.71249802895636L100.47991574594286,136.08526461679588L100.5195217903222,127.16810547676803L100.61111076794941,130.33241135859942L101.93791325465732,130.87428999636384L102.01341227675543,134.6410479116695L102.79625049769083,132.70089787158167L102.85504071981642,138.776569091297L103.33155094125536,135.5083244651639L103.6558254296112,131.93762931324642L103.68119805179171,137.4563572647446L103.6898618739997,138.44221309557346L103.78702045161776,134.09369749578866L104.00547254014757,132.43826024009527L104.1199587621816,129.9844596625168L104.22330578423394,130.3774822007057L104.46279858384027,129.246078090643L104.47888853936936,131.11909324636838L104.51540036153158,134.07665349948772L104.68867680569119,137.77480199472305L104.72704516118367,141.00822707152952L104.92260000530666,131.8871228940881L105.31618507132636,135.66921392270584L105.78341262611389,134.71190350669744L105.91460764812045,135.9497019641242L105.91893955922444,137.1465860565846L105.94616871473524,137.1064481368804L106.03033155904134,132.92134567828077L106.30819271414015,134.78647568179133L106.32180729189554,135.15680964821414L106.34408569185894,134.66597768509726L106.67702400242275,134.102676517104L106.78408409113565,139.9544813188244L107.05761333513047,141.83634333707155L107.14177617943658,138.46221648262406L107.21294329043072,139.2298423920675L107.24697973481919,140.38405300914908L107.34661369021097,132.74230258299633L107.71668266738044,137.16089241347706L107.79403822280884,139.81012591872025L108.40421884402805,138.96859982085186L108.53788924380832,141.26690257441388L109.07566506514655,134.67377292257646L109.26379377594843,135.9390045852548L109.39189457573785,140.04874778159308L109.56083910879347,137.42924152127856L109.64871501976013,137.58917396523572L109.8504583083174,135.38011405787046L109.90801084155612,132.9762976231474L110.69084906249152,132.69124152928816L110.90187501770019,136.56731013430766L110.95818986205207,139.28397620378533L111.01945546195135,139.1522102550679L111.10361830625746,138.179132749352L111.44150737236872,135.12847556617277L111.48358879452176,136.75833155673087L111.59931270544264,139.4116523585619L111.6166403498586,144.7732216181865L112.25652550436232,142.06864688870465L112.6067914593421,132.19114051964783L112.63959021484375,133.05537022262672L112.91868905882941,122.97002318916327L113.51773048006694,129.84899925517965L113.65078203540378,126.38396948011172L113.85004994618734,130.83308645765106L113.89460674611409,129.3077268339817L114.579667544988,131.26106237168756L114.59637634496053,133.64089593674174L114.6186547449239,137.45083994114296L114.71828870031568,133.24826689112467L114.83958221122742,139.09960684529162L114.90703625556098,137.31581438776558L114.98996141098023,139.74649691766007L115.40025527697246,138.37795190741667L115.412632165841,135.67543757968056L115.75732852082994,132.6225018538517L115.91822807612101,136.49216702836318L116.04942309812758,135.77241165979854L116.09583643138461,139.28321166495263L116.16514700904847,136.32791842577623L116.5506870973036,140.8440036695247L116.66702985266791,135.87771459838584L116.72396354146322,131.1106641827199L116.85453971902636,139.37849737480667L117.02657847429911,138.97132072501634L117.22522754063925,141.27052638562384L117.23451020729065,142.43261143522545L117.23698558506436,135.3593557875622L118.08108940589905,138.58421788435993L118.13431002803378,138.45618220402613L118.94375856003654,136.33576752147223L118.94994700447083,138.07376156955866L119.03967944876777,144.54556506644604L119.83056264746772,138.5104872707004L120.49582042415196,136.13263448939318L120.57688904624091,137.78727084637774L120.70932175713433,140.12061236447795L121.25204833401997,140.0478084001584L121.72484548879835,138.50635059035648L122.66982095391167,137.0270006228381L123.02132459777832,136.11610581638496L124.53935001750523,139.8425914774556L124.54491961749608,144.09562216773003L124.62351286181132,145.8884562178435L125.68668761561923,146.57459939809385L125.80736228208754,142.8790419083554L125.91627890413072,136.5447935864683L125.99672868177625,135.88953789854764L127.26474094635857,131.91301302840353L127.95660903411017,137.55707673976485L128.24932245585123,133.97399540503648L128.2623181891632,140.28712830642434L128.48200796657986,134.07964623151116L128.5692650331031,138.97849223128804L128.68560778846742,140.03344923171926L128.8130897438134,136.65357726039244L129.06186521007115,135.3990667022248L130.09904849725513,137.9097122818909L130.94872191808065,136.1071269292986L130.95119729585437,137.92556689650866L131.29279942862615,125.4084972202892L131.7897315166982,131.03234561668393L131.81510413887872,138.11108753519824L132.60103658203127,138.01492433711658L132.79659142615424,140.46542173689414L132.92840529260422,143.08208152014237L132.9958593369378,144.44734700202636L133.04907995907254,144.9422694051314L133.11777169229296,142.62174062643743L133.26320013649834,138.03548138258935L133.4896972027927,139.12955904564697L134.47242217895507,144.14021843348306L135.4786632439677,144.15194022986253L135.70268493248832,144.36985059280113L136.3506150647566,138.35937030005385L136.35309044253032,143.25059425824352L136.43601559794956,144.64488990819808L136.92737808603076,143.67356309564707L137.09199070798238,144.98644180324663L137.329008129815,141.05250496356632L138.0821418174659,138.7148703233201L138.10256368409898,135.28602174904876L138.55246359447054,133.92051985515462L138.55741435001798,141.47611643263457L138.59949577217103,144.41822165882496L138.61125381659613,141.69897504804032L138.8445581717682,137.07935528942733L139.26475354885525,136.99114636503938L139.28641310437519,141.33508311188294L139.2882696377055,146.34978799569421L139.36438750424705,144.27170213502222L139.4250342597029,143.80640478403637L139.44731265966627,145.81567241287925L139.70351425924514,142.83646366738395L139.73507532585992,144.9249164484278L140.04078448091295,145.1691313514687L140.08719781416997,145.80546225293233L140.3489690137397,141.83462028644033L140.50986856903077,142.85300100989878L140.5977444799974,143.61290450361452L141.3143663454861,144.40699681303653L141.6423539005025,143.4920992317796L142.06873772202388,145.45754532766804L142.4654170102607,144.8583728095405L142.5273014546034,144.9320965659763L142.57804669896444,141.88911023888656L142.64054998775057,137.2807687245661L142.6999590543196,145.07567658839162L142.9734882983144,143.03877606726604L143.01371318713717,144.23876197874205L143.3231354088508,147.4211947446762L143.40977363093057,145.8836065046151L143.5193090974172,144.84412606899488L143.70991318599278,148.28435978057814L143.8541039413113,143.6614108141672L143.93950447450425,147.62130413674493L143.98468011887445,147.60565360382526L144.73286305097793,145.66490283218923L144.85848847299363,148.67512022208868L144.98844580611336,149.73704652014746L145.10664509480796,141.8524386336902L145.36408438327365,144.12587721784345L145.45814873867457,142.71312627559297L145.46186180533516,146.74519853649088L145.68650233829922,145.3777443018397L145.88515140463934,146.46398965994726L146.3257686483595,146.65109915163217L146.51327851471797,142.18172795533187L146.69212455886841,136.90151306949784L146.71564064771863,143.07517033910955L147.2744571801334,141.66319727784196L147.5857359351773,145.81750958123328L147.8524578902944,146.81592510163367L148.08576224546647,-132.3292224222257L148.29493166734483,-18.85255940857371L149.12232668820698,44.79585943339637L149.17121539923775,77.89070537012772L149.46764188763936,104.5822358511355L149.6693851761966,119.71379310696531L150.31174570847406,127.52262395432007L150.40642890831842,136.66957167299083L151.06549824056836,141.49546940249584L151.3346955734592,145.8622728383694L151.78892739493477,150.3815309288164L152.5494872159068,150.3424974948125L153.29952668134055,152.45432548072566L153.37502570343867,151.76248202551741L153.75066428059895,146.95738059401197L153.78903263609143,146.70664968447028L153.81378641382852,143.1862853655988L154.16529005769516,145.01725855920085L154.18261770211114,147.34790262402524L154.70863547902425,148.89036579175806L154.76495032337613,144.97458441507794L154.95060365640427,148.93924304569808L155.18205147824605,145.01989588193416L155.195047211558,145.9507156596373L156.57878338706124,151.14539360872138L156.75391636455112,149.9804345725005L157.00888027524311,146.7187430876864L157.20938587491352,149.02187475467792L157.9278642737325,144.32111273236956L157.97737182920667,145.50075612437593L158.07329271793787,145.93063770892394L158.12403796229893,145.92618687273387L158.55846676158484,146.15385457114095L158.93472418318856,148.45657706232538L159.1995896049754,147.95457016070318L159.4601231156582,146.94993467769086L159.5820354710134,147.4322641735724L159.79863102621292,147.29254394597444L159.92982604821947,142.9825925623497L159.94715369263542,137.05696613632372L159.9805712925805,136.0039226871001L160.21820755885653,138.9080127183221L160.55114586942037,138.7428597583741L160.66439440256752,142.7525817343357L160.7423688024394,147.38020673480656L160.88222764665392,144.75390874298333L161.06045484636093,146.75287193133582L161.40391351246305,146.7503229431214L161.6947704008738,147.34053496772097L161.7306633785926,144.40728100640524L162.0834047113461,147.74569059069594L162.4163430219099,147.60524357462504L162.50545662176344,149.96241785992774L162.72390871029324,150.92520803660216L163.25425839831036,148.90187369291945L163.39968684251573,147.34258564573696L163.69301910870024,152.78918760320457L164.66769910709806,152.8023526287818L164.71968204034593,145.0530194485824L164.7642388402727,148.60064063828614L165.26797821722243,150.06049035406858L166.19500719347636,148.58043711681282L166.31630070438808,148.15164477548615L166.39365625981648,148.42552125459417L166.69936541486953,146.1573007485644L166.75444257033453,144.36338562635976L166.8472692368486,144.74986015581715L166.92648132560728,146.5791695624993L167.06881554759553,148.07512273554198L167.12265501417372,140.32441308880254L167.53913732460023,135.6692555062959L167.7687286131117,139.40565015138407L167.87269447960747,143.93545227692582L168.07258123483447,147.21221469671696L168.803436522522,150.44767967498063L168.93277501119826,148.92207570093416L169.5033495880381,148.8694350660553L169.551000610182,146.86575938622468L169.81524718752542,147.66840333504553L169.827624076394,147.31470358759196L169.9322087873332,149.13588851595L170.5949911862437,145.04144404359522L170.8839915413242,148.95169875039647L171.75470567322623,145.71627113526353L171.8147335842387,149.31300839940096L172.07341056159126,151.21454786547335L172.37355011665343,147.3619363815571L172.37911971664428,144.30317604152265L172.68544771614074,148.07817936763155L172.7689917160034,150.57808501703224L172.97754229343838,150.91487796802977L173.05861091552734,145.61031853043414L173.42434798159283,148.12110660005357L173.7195367811076,151.6770517803509L173.88910015860662,152.0767660157684L174.30558246903314,152.08191871792425L174.32167242456222,150.28597306822778L174.5234157131195,147.6315378254247L174.83407562371997,148.49755208661966L174.93680380132886,150.56241794928872L175.02282317896527,152.0199414049628L175.27283633410983,149.16466863623324L175.66270833346897,148.6928816576314L175.78028877772013,149.65525306632154L176.2048160659112,148.77942100581194L176.2574178436025,150.76172775411717L176.48639028767056,150.92362365708527L176.52413979871963,149.48129159015616L176.7512557094574,145.74551659237605L177.07862442003037,147.1500168714146L177.2636589086151,148.55635167439925L177.80452895217047,149.31641898366092L178.22719970703125,149.6601190278811L178.78725392833286,150.74639183288727L179.17898246102226,148.7922580916922L179.35597197184245,149.17184018115734L179.487166993849,144.91266605851467L179.96367721528796,147.92784260029617L180.23411223706563,149.50467450348233L180.33622157023112,146.5721686370111L180.8114941027832,146.5898917278141L181.0955437023163,145.13306661453024L181.57081623486835,145.92160570546088L181.65869214583503,142.14233095173344L181.92293872317845,140.10686317328847L181.9470736564721,145.9967740865086L181.97306512309603,147.93443550078388L181.99348698972915,146.53554335136914L182.37531401132372,141.07421639835235L182.87967223271687,142.9288391768187L182.91061445488822,142.75910127473264L183.22003667660184,146.6782664960457L183.24788467655605,148.05333375721912L183.28810956537885,149.51629271536208L183.50408627613493,148.17677109437594L184.18110209724426,148.5434892270553L184.3141536525811,146.19743335119378L184.75662742963155,150.22842332336037L185.27336253989327,146.867823215898L185.34329196200054,149.34141947588472L185.38722991748386,149.74252738519658L185.40270102856954,152.29204915665576L185.42064751742893,153.5636409994144L186.22885836054482,149.92721478349247L186.34334458257888,147.9715257148619L186.55065747112698,147.97929044422673L186.70722511531406,151.3907501693517L186.72083969306945,152.47944582217409L187.32792609207152,154.14508497723767L187.62187720269944,152.88544499302915L187.85394386898466,154.56447300657348L188.10086280191211,153.43170216839752L188.32612217931958,152.3437615969041L188.41276040139942,150.50155507723952L188.9802407560221,152.33661231302224L189.30203986660428,152.9685225498696L190.09787382085165,146.99663526355744L190.25506030948213,147.24087130262942L190.3039490205129,150.36935855350654L190.45804128692626,152.06832926600092L190.6975340865326,153.0251822398589L190.73342706425137,152.69369707709865L190.84172484185112,145.63228456617836L191.0279970193227,145.89600183198846L191.80340910693698,146.62389463367725L192.15615043969046,148.50189614347133L192.17657230632358,149.23331208405475L192.20070723961723,152.34283497145842L192.62028377226088,152.57626246856128L192.74405266094632,152.65371188745493L193.205710615743,149.63364074144621L193.66179897054883,139.51037609907752L193.86044803688895,145.1049298871239L193.88705834795635,145.42863108820018L194.26517230289036,146.46033121405873L194.30168412505256,145.41327218758775L194.48795630252414,143.50382796478087L194.71259683548823,147.86873530130106L194.84379185749478,149.39875585490847L195.24604074572247,146.48958564403162L195.60063861180626,144.93042866138222L195.62415470065648,147.6937315316551L195.63096198953417,149.92790107876684L195.78257887817384,152.86745799796995L195.9775148778534,150.43995494002152L196.0938576332177,148.43238178417252L196.10314029986912,151.93203315236212L196.33830118837145,145.507244687776L196.43979167709352,147.02160831184742L196.74921389880708,150.147255890362L196.8197621653578,152.17046865687996L196.8240940764618,151.16223565914524L197.04625923165216,148.23097039370185L197.75545496381972,149.8439412031071L197.80496251929387,150.15537307482654L198.07477869662813,148.01777360574084L198.25671896299576,148.82430551903184L198.75055682885065,149.69776214878132L198.81058473986306,148.4349738004018L199.22397282807245,149.33233823603425L199.42819149440342,149.1748002863264L200.10892038217332,149.5307188919975L200.1380060710144,150.2467351340301L200.26610687080384,148.02089499835253L200.88928322533502,148.75833925285303L201.2915321135627,151.68377469070742L201.4536693577406,153.28615690079812L201.54030757982042,148.1132811831664L201.75999735723707,145.64082072007585L201.9635971791246,148.2578546518408L202.07498917894154,149.76636568996764L202.36955913401286,153.1619461836981L202.57439664478727,153.09515590898138L202.7458165556166,151.5462752628577L202.95622366638185,149.44437841054273L202.99087895521376,149.72276294407635L203.22975291037665,143.20747580138442L203.26812126586915,144.29310986091667L203.76195913172404,145.62187651893822L203.79908979832965,146.30635597184934L204.03115646461487,147.22658712802496L204.56521921929254,144.44486901251116L204.807806241116,146.43164838841918L204.97675077417162,145.89107212577778L205.18344481827629,148.66207113262712L205.3678604624176,150.32120606668232L205.40870419568378,145.24815701220837L205.47615824001736,148.8028542531941L205.48049015112136,148.5622830369526L205.68780303966946,151.58567034110644L205.75401939511616,152.9746309793495L205.88088250601874,150.92692021830732L205.9279146837192,152.33150363002616L206.1686451722124,151.88242268103448L206.29736481644525,148.0024331668028L206.3029344164361,151.5716638322222L206.56903752710977,151.94021767404206L206.98861405975344,151.55862886021907L207.0969118373532,152.8609703716766L207.10310028178745,152.40431456457418L207.29494205924988,153.78246539957294L208.7071450791507,152.80813377869478L209.59704338879905,152.62129049016627L209.80868818845113,147.82685982246733L209.85633921059502,151.17980892355763L210.20103556558396,146.27874585533473L210.38359467639498,150.67661858786735L210.60328445381165,151.73423171846355L211.148486408471,151.57527081888273L211.23450578610738,150.3758312439291L211.3031975193278,146.0151066244781L211.3217628526306,148.99401133202434L211.37931538586935,148.7774799429245L211.42696640801324,150.52297558921566L211.85087485176086,152.06851902490413L211.8762474739414,150.65984026963264L212.26240640663994,151.79378825675047L212.8348375168101,154.3511799724577L212.8527840056695,154.4830583761236L212.87939431673684,154.64741557634378L213.42026436029224,151.29899670234957L213.54155787120396,152.50875916865354L213.66223253767225,152.674711663992L213.6746094265408,153.48012933842548L213.77114915971543,154.46281183249943L214.0409653370497,153.21365414891156L214.18639378125508,151.81424896749277L214.23156942562528,152.38774055701256L214.2730320033349,150.04714363183626L214.52675822514004,150.54065548891688L215.10104586864048,151.2638974560865L215.20067982403225,152.97819611384676L215.23162204620363,150.17257294057023L215.28731804611206,152.54567858248296L215.4475987569597,149.6228940701423L215.6072606233639,153.11572040775548L215.84118382297942,152.68947715987326L215.88264640068903,151.69478730326298L216.1759786668735,144.70916130231208L216.42104106647068,147.208981826551L216.71870524375916,144.56051851760287L216.7193240882026,146.2798751561413L217.2589564428711,149.7109549183406L217.7552696864997,153.09316702522653L218.21321457463583,150.0776012682067L218.26891057454426,148.7752007382353L219.19532070635478,151.9339440876255L219.25596746181063,147.12812779045544L219.64707715005662,148.22989185303496L219.7850794609409,149.7465092585399L219.88718879410635,138.99832172567375L219.93669634958056,143.5636198097483L220.05303910494484,145.78611891227857L220.31233492674085,144.091358632594L220.68611697057088,148.7789979429148L220.69973154832627,145.74168968473737L220.94974470347086,144.01431669405338L221.0394771477678,145.32601528554926L221.06051785884435,148.15292482286276L221.06546861439176,148.00465042817143L221.54383536916094,151.47387107458275L221.9380392796241,148.3806946678737L221.96650612402175,149.60882867848278L222.091512701594,152.57324496264562L222.26664567908392,151.28899993434428L222.86754363365174,-253.80547335407516L223.27164905520968,-89.33811216833567L223.46596621044583,6.955525387707752L224.00126665401035,66.36435733419296L224.11018327605353,103.76797009799732L224.4455969643911,122.7920202066316L224.63743874185352,135.81215102072997L224.70922469729106,138.38842372088337L224.75501918610468,145.68764199344474L224.78162949717202,150.91239227420934L225.20986985202367,151.30151287415885L225.28908194078235,153.1350438943153L225.3497286962382,148.6336985499999L225.76744869555154,151.0695497893494L225.99889651739332,149.8296504344757L226.03850256177267,151.06798748402022L226.0527359839715,152.34121129426637L226.25324158364188,151.06055209130463L226.55214344981724,151.39284505516613L227.22606504870944,154.20215672420127L228.36164460239834,151.38499410237264L228.63641153528002,149.62629669011775L228.67911180187647,150.48542082045236L229.45699926726448,147.29251314872292L229.62470611143323,151.45937509465028L229.62780033365036,150.33022808786302L229.66059908915202,147.03831881699824L230.12287588839214,150.46569259147623L230.2169402437931,149.8495536358864L230.40754433236864,151.67238536482344L230.8234077983517,152.43046112345212L230.95336513147143,154.43328102618483L231.06723250906202,152.8673261844383L231.47443215283712,153.21680807075492L231.84635766333685,150.64484235002988L232.00849490751477,151.53505355116528L232.10751001846313,147.96296095500938L232.16011179615444,149.58602358272196L232.33338824031406,152.0389261379585L232.4138380179596,150.86993871424485L232.47015286231147,149.01615952073075L232.59701597321404,149.67688873627566L232.7139775730218,151.65371572310764L233.11993952791,153.70663987298337L234.1521720595466,150.6549523718441L234.34896459255643,153.71439421342757L234.35453419254728,153.7733959763776L234.76544690298292,154.1530345991837L235.0018454803721,153.97484075268738L235.31931267985024,151.14184792702457L235.74940956803215,151.57777808600358L236.0483114342075,146.7813911893805L236.1281423674096,145.90195775822576L236.16527303401523,148.72622274103287L236.55019427782696,153.29103068357685L236.8497149884457,151.22950249310188L237.0248479659356,146.17285004325248L237.62698360939024,147.6587724025214L238.02366289762708,149.2751994598218L238.14186218632167,152.0190049080198L238.7062483187273,152.1605688590506L239.02371551820545,151.1930696438558L239.21927036232842,150.9658211841146L239.2731098289066,148.0386294551346L239.30900280662536,147.103534848751L239.64317880607604,150.8267105566277L239.65246147272745,149.41322595811639L239.7718984503089,151.7032589725659L239.97302289442274,150.44618216489178L240.24160138287013,143.96907319742087L240.56525702678258,148.10165463149863L240.64013720443725,149.5049849505279L240.79237293752035,149.59825357068354L240.79608600418092,147.6982136664963L240.88643729292127,149.75857825226302L240.9347071595086,151.54135229129602L241.2602193367513,153.19558426126224L241.445253825336,153.75021307835274L241.47743373639426,153.71485131111993L241.53065435852898,153.39116029246773L241.5516950696055,153.2579792726447L241.70083658047145,152.68089618540628L241.90505524680245,146.21257216323488L242.0473894687907,145.6684291765763L242.19900635743036,147.64321020520217L242.20333826853434,147.60425037606495L242.22932973515827,151.17192895459755L242.56226804572213,154.58738737345544L243.3952326665751,155.22974302810567L243.41565453320823,153.85284600394368L243.4744447553338,151.3717983549178L243.48496511087205,153.4521358643176L243.95590573232013,154.25281977192597L244.07967462100558,154.79256196865433L245.25795444129096,155.0685912838098L245.3705841299947,154.34013452517328L245.74746039604187,150.97075288041714L246.4628445726437,151.2122759988911L247.04950910501267,146.55712189043007L247.1231515937805,148.49377765484326L247.94559585909525,150.89122991909028L248.01614412564595,151.78913667135788L248.06070092557272,152.44934160511494L248.0922619921875,154.28740564156647L248.59785790246752,154.71708603265174L248.74266750222947,154.58998612367114L248.82930572430928,156.18626280076936L248.91470625750225,154.24272437931558L249.0916957683224,155.34267524494047L249.1690513237508,153.64443396217388L249.32438127905104,151.06839709678314L250.51689452153522,152.6203429235876L250.54412367704603,151.67672610655492L250.94699140971713,154.35482321139105L250.9667944319068,152.94604278472124L251.06147763175116,151.39672025225542L251.067047231742,152.44884458642235L251.1877218982103,152.21887184408507L251.23784829812791,142.59893235008866L251.517565986557,148.11718862783346L252.486676384964,149.93652639614817L252.5002909627194,152.7525140016454L252.67913700686984,153.05985509427148L252.69708349572923,153.87713219672622L253.34130056133694,154.162698881984L253.39018927236768,152.68385353871474L253.68723460521272,147.90022023820862L254.36734464853922,146.90235935142692L254.37910269296435,149.92959632866385L254.4533640261756,150.72503891304405L255.39091335796778,152.73464166607567L255.84514517944336,153.27848269627438L256.2176895343865,150.37769216016179L256.5951846448771,149.7456732364014L256.706576644694,153.98072110678268L257.82049664286296,153.93991011301733L258.38921468637255,155.49908217462556L258.45048028627184,154.2517055426956L258.508651663954,154.67417835177474L258.6577931748199,155.0956542407857L258.9307035743713,153.6799286751996L258.9981576187049,148.87701059707965L259.2258923738861,150.14079215967038L259.26302304049176,150.59539864560162L259.43382410687764,151.3462531367519L259.4350617957645,151.8392502485103L259.4895201067861,152.10962560703237L259.7290129063924,149.47023482670562L259.8082249951511,152.43158151252265L259.8868182394664,151.6021350696735L259.9610795726776,153.4847615975364L259.99140295040553,155.14232181035774L260.1813881945377,154.39606274559083L260.2587437499661,153.41731163858026L260.5229903273095,155.37767196248276L260.7711469491238,155.56524891603726L260.92400152665033,155.6047931521965L261.1628754818132,156.22353344574066L261.28045592606435,155.92482056758848L261.4252655258264,156.74030605373775L261.4481627702332,155.6174676432418L261.55274748117233,147.11795995347597L261.6022550366465,150.43999560073865L261.68208596984863,147.5296526977468L261.755109614173,152.116343205015L261.7885272141181,153.24437059755815L262.13817432465447,155.9589632594733L262.5100998351542,156.99593567307676L262.82261627908497,150.67699008539802L262.82756703463235,153.7294188674215L263.1407023230065,151.63120677788325L263.455694144711,152.43724374040053L263.6970434776476,153.2030593106541L264.0615428548262,155.16811655009664L264.16241449910484,155.42028377360452L264.2051147657013,152.8793377024767L264.87532329793294,151.02017616573926L265.11914800864326,154.22072054554997L265.13400027528553,148.3499960752849L265.5393433857303,149.7951145982566L265.5820436523268,145.7723286298491L266.3624064954885,148.67254901728705L266.4286228509352,151.0349654989211L266.50969147302413,151.2846049947564L266.629747295049,152.39057037358808L266.74175813930935,150.57112430448865L266.7541350281779,148.80346047164554L266.89523156127933,147.30646382125832L267.199084183002,147.01656611843777L267.2448786718157,148.92565898097172L267.777084893163,148.2701389539298L267.99368044836257,150.51920025822596L268.0097704038917,151.22358506876358L268.30062729230247,153.88655718535375L268.49246906976487,151.54567145395333L268.79013324705335,148.8473625900859L268.8167435581207,148.37301927756255L269.0191056911214,150.06092984294787L269.2282751129998,150.14799321600563L269.53212773472256,151.3324835042154L269.58287297908356,146.92986818274724L270.251224977985,150.39967527345615L270.4405913776737,153.446625256978L271.01178479895697,152.57977408364226L271.1497871098412,155.41896274489898L271.4400251538086,155.65208395079108L271.70922248669945,154.57328816935689L272.1424135970985,155.2503049212077L272.1931588414595,156.96759594386924L272.2241010636309,157.05002286868617L272.25875635246274,157.45042494629135L272.4406966188304,152.85471258592588L272.47040115211485,155.3138036160616L272.5069129742771,155.42759204618906L272.8101467515564,154.7082450425634L272.81324097377353,151.31515740526766L273.09790941775003,154.8797964085553L273.2897511952125,156.05928550619916L273.33059492847866,154.42581227816805L273.7879209721714,155.9283392320681L273.8751780386946,150.5049367660219L274.04969217174107,153.9868674748056L274.13756808270773,153.243591284687L274.40924079337225,151.769560053104L274.52558354873656,152.75993527021728L274.6722496818288,152.9174141804637L274.7310399039544,153.75225981385432L274.7458921705966,154.96101138989377L275.5342999915229,156.84828147558346" fill="none"></path></g></g></g></g><g opacity="0.2"><g><g><g><path style="fill: none;" stroke="rgb(204, 51, 17)" stroke-width="2px" d="M33.32415443411085,-7.131499869331236L33.41821878951178,7.160988003563688L34.07048083288405,9.917077472992702L34.516048832151625,28.164360007697894L34.86260172047085,14.237349497636217L35.19801540880839,18.3412144887792L35.38861949738397,27.331353965948267L35.49134767499288,30.236253405120635L36.02912349633111,31.4200602432216L36.13556474060058,17.2312726304757L36.45736385118273,27.99064230390536L36.84847353942871,39.48158385165783L36.90478838378059,27.48323039307749L36.91345220598856,28.05439183150861L37.03165149468316,25.987628482291086L37.10158091679043,31.142835138235085L37.49887904947069,13.956402214816563L37.55395620493571,42.80645295142264L37.63131176036411,16.394881914064342L37.6517336269972,41.22718882592051L37.74022838240729,24.479741456065824L37.75198642683241,-104.30668584741477L37.88441913772583,34.89033535217254L37.90545984880235,50.81144960012354L38.19693558165656,39.07528789098086L38.98658109146966,17.931051706052813L39.05527282469008,48.61031177395077L39.09859193572998,64.3569754540799L39.81273842344496,38.710070887736975L39.9092781566196,55.80646760797417L40.184663933944705,50.034102652811356L40.24407300051371,48.19854826189717L40.29048633377075,74.0319956525458L40.33071122259352,41.54791326822638L40.380837622511116,59.57665767797734L40.53245451115079,29.940619912871313L40.61971157767402,34.414841598411186L40.73976739969889,49.24708382890168L40.904998866093955,32.774769044370856L40.979260199305216,47.488991237297284L41.239793709988064,30.645326534750836L41.337571132049554,48.865753459960445L41.3771771764289,48.37174524651098L41.808511753497655,34.210285747700595L41.812224820158214,37.32474572746801L41.94527637549506,50.91311519829644L42.09194250858731,54.20414719439165L42.12845433074951,54.3558886202523L42.983078507122464,19.649145350372663L43.01649610706753,51.05647690255866L43.15511726239522,51.2717460682242L43.18358410679288,64.6900621554067L43.251038151126444,55.79413427779649L43.73621219477335,49.30370721811457L44.119895749698216,48.990417488527214L44.346392815992566,63.93881866766523L44.82166534854465,51.14164341712406L45.013507126007084,77.97516091936443L45.03578552597046,72.16402167128186L45.59274552505493,62.06581106767359L45.77716116919624,63.26674378098605L46.86818392295837,47.46241527328658L47.69000934382968,79.03360943666031L48.04832027657403,80.94617240833983L48.09844667649163,70.45037342587669L48.483367920303344,58.742118407534775L49.0353771638404,65.85300165456746L49.18204329693265,82.33468938431544L49.70187262941148,80.35402791559551L49.792223918151855,75.53270832564193L49.89371440687391,89.48429388805526L50.31824169506497,71.25144202466429L51.42782978212992,72.249747476817L51.46867351539612,70.69473536491677L51.758292714920046,77.1065916862972L52.13455013652378,71.1317151853477L52.42788240270827,70.06548480921415L52.784336802122326,92.64654913836654L53.007739646199546,83.44670447638609L53.17668417925517,67.70483334129082L53.32025609013027,107.76471441271786L53.445881512145995,57.614877100960186L53.71507884503683,89.33763911713497L55.257858042500814,93.27268502194454L55.30922213130527,84.18983824506624L55.371725420091416,89.57315365161054L55.415663375574745,88.55192209117212L55.628545864113704,95.5912739517639L55.80924844159444,74.33767709635505L55.89650550811768,97.94837681491366L56.200358129840424,87.0372367867801L56.31422550743103,83.67849201155465L56.507304973780315,77.47400728162907L56.96586870635986,70.43681544133423L57.13728861718919,85.7066016046993L57.55624630538941,94.99612568079412L57.674445594084,99.24405148991148L57.890422304840094,90.14020237282446L57.92198337145488,90.75197508572253L57.944880615861685,78.73100409318464L58.051940704574584,90.3684750535366L58.057510304565426,83.91009633071586L58.15838194884407,96.67007873176897L58.19489377100627,101.03655011910303L58.254921682018704,122.95080943252393L58.41458354842292,89.00123524178072L58.422628526187474,95.30793521790119L59.08788630287171,77.73050969189173L59.7092061240726,96.61075049571103L59.800795101699826,97.72869117917668L60.11702461229112,90.02672416365262L61.029201321902804,97.89761633793536L61.055192788526746,106.91421124226818L61.153589055031674,97.08606103346504L61.582448254326714,97.44968212885563L61.904247364908855,103.64747465303978L61.971701409242414,86.64413720010482L62.230378386594985,104.8117545219384L62.5379440749783,103.69167792554519L62.94885678541395,108.41520356084919L63.0682937629954,91.88931255859582L63.65805251758152,99.50508126414476L63.928487539359196,111.31040701605468L64.23605322774252,110.46275333666638L64.24286051662021,118.69649999199325L64.35239598310683,112.90440556572528L64.5590900272115,95.88077935071541L64.93039669326782,100.33067670054524L64.94091704880609,111.45794893816836L65.64330549209595,110.69146959297521L65.70518993643867,100.69044543830802L66.01584984703912,104.36165064961395L66.09382424691094,89.48752427555293L66.14147526905484,104.62626277893793L66.68048877927991,117.24764227044551L66.79497500131394,106.58130775694873L67.48993731128269,106.13535517363249L67.7838884219106,106.84897187923691L67.83030175516764,114.81762425785209L67.97511135492961,108.28460911941359L68.39530673201666,105.03882665565513L68.41510975420634,103.94431833523228L69.21898868621827,117.47136347981765L69.29820077497695,93.71849778251834L69.66765090770298,100.49671861792542L69.76047757421705,115.60563148390656L70.06680557371352,114.75656511267228L70.12683348472595,92.56137298085338L70.25493428451539,119.97889632793348L70.52351277296277,116.79235531370317L70.82798423912897,124.00775847144402L70.96041695002238,107.80130457797131L70.99940414995828,108.43651929685993L71.12379188308716,101.23056622791825L71.12812379419115,96.83038791670926L71.24570423844231,107.71499537409703L71.25746228286744,109.95113227914379L71.3750427271186,105.90444514670956L71.56193374903361,106.47537515439457L71.58359330455356,100.87612039731582L72.07000503708734,106.79185669968857L72.1170372147878,129.87601772054882L72.58178939180162,118.76779030474032L72.88811739129808,120.39907813337655L73.02178779107835,120.74669675696896L73.12575365757412,95.07916592537971L73.30336201283772,112.03442364081205L73.65053374560038,108.04715635243942L74.0855813893297,92.7589473373899L74.40366743325129,111.17018409128647L74.70318814387004,129.89427182064756L74.74279418824938,114.39215811703971L74.90926334353128,125.36744303363446L75.26757427627564,108.7374178385831L75.41919116491529,117.73297183091617L75.64259400899252,111.84796760303615L75.65002014231365,114.31676955149712L75.75708023102653,115.02425334232984L76.22183240804036,99.68514884903347L76.22554547470094,122.08629988046121L76.67853960728964,118.61840175813168L76.77941125156826,109.16175575450822L77.24663880635579,123.5398561283022L77.30233480626424,130.9009111903969L77.38525996168349,114.28859285815923L77.90942120526631,114.0227946462615L78.08641071608649,125.44275927706892L78.25535524914211,121.55529890868955L78.66564911513436,108.91127536511807L78.84820822594537,107.47976530658022L79.04314422562494,115.46382229423278L79.16938849208408,123.53461759693471L79.276448580797,125.27901720272811L79.30800964741177,127.01031927473434L79.65765675794813,127.95755085410676L79.81422440213521,133.02131102576038L79.9206656464047,135.67470310160678L79.97450511298285,120.53817765473138L80.0846594239129,119.37156419247624L80.41326582337274,119.22246011282638L80.45225302330864,130.32872036729302L80.53951008983188,113.76819671818029L80.63481213411967,120.60948725337394L80.93742706695556,109.28990570868812L80.96279968913608,122.42567860519765L81.2932626219262,125.31961883424734L81.35452822182549,126.3436179206912L82.07795737619188,121.4899052584942L82.221529287067,97.31405406869231L82.6404869752672,104.45549099568429L82.67142919743856,126.89326112120874L82.79210386390686,128.29598215922633L82.79952999722799,120.27798199547885L84.19564306159972,127.91584269433274L84.24886368373446,116.66666913267446L84.648018349745,134.62586137101107L84.65296910529243,125.3260820199796L85.37392288188511,108.06834190865547L85.90674794767592,121.06773941655072L86.14562190283881,128.103696959533L86.32137372477213,130.20401053472443L86.93774279042562,124.51086480609962L87.55658723385281,130.52893207004033L87.62032821152582,136.03150663293513L87.74719132242839,125.32913160220687L88.66617532091776,122.98304580686633L88.8060341651323,126.98304178627455L88.89576660942924,123.63413522849535L89.131546342375,106.96652423383492L89.35061727534823,127.77210491510812L90.79066829520332,125.42149175579695L90.9268140727573,127.5470336930504L90.92867060608758,122.14279791135328L91.24613780556572,113.02810529951661L91.2498508722263,130.5082551793183L91.31482953878614,123.81385325652798L91.35443558316548,129.59952065811774L92.38852464813232,123.22799114424552L92.39409424812317,134.80321928758082L92.73198331423441,128.23972038055425L93.4257079353163,125.82304820765269L93.66210651270548,125.02965539527747L93.68624144599914,109.97013370769352L93.72089673483106,131.18574217042456L93.97709833440993,117.40099889005499L94.00927824546814,133.36403103189366L94.35768766711766,120.22309915833563L94.42637940033806,127.74138489430007L94.47526811136882,128.31772700641213L94.67763024436951,138.08420574285304L95.05821957707724,121.20071566608163L95.09720677701314,117.78238711668276L95.1256736214108,137.4676260204995L95.44499735421923,128.51230722767096L95.85962313131544,136.08740197959256L96.95064588507759,122.557381985625L97.06822632932875,141.107185488013L97.32195255113389,134.59746288987483L97.46366792867872,127.69841350837024L99.86911628028022,120.2670324283039L100.1803950353241,141.8611097152301L100.22309530192058,130.173148280437L100.27631592405531,134.06780710931488L100.47991574594286,141.14441449855514L100.5195217903222,113.79236676672629L100.61111076794941,135.07887018134647L101.93791325465732,131.6871079530105L102.01341227675543,140.29118478462794L102.79625049769083,129.79067281144995L102.85504071981642,147.89007592087006L103.33155094125536,130.60595752596421L103.6558254296112,126.58158658537022L103.68119805179171,145.73444919199187L103.6898618739997,139.92099684181676L103.78702045161776,127.5709240961115L104.00547254014757,129.95510435655515L104.1199587621816,126.30375879614908L104.22330578423394,130.96701600798912L104.46279858384027,127.54897192554898L104.47888853936936,133.9286159799564L104.51540036153158,138.51299387916677L104.68867680569119,143.32202473757604L104.72704516118367,145.8583646867392L104.92260000530666,118.20546662792594L105.31618507132636,141.34235046563245L105.78341262611389,133.27593788268484L105.91460764812045,137.80639965026435L105.91893955922444,138.94191219527517L105.94616871473524,137.0462412573241L106.03033155904134,126.64369199038137L106.30819271414015,137.5841706870572L106.32180729189554,135.7123105978483L106.34408569185894,133.929729740422L106.67702400242275,133.25772476511403L106.78408409113565,148.73218852140508L107.05761333513047,144.6591363644423L107.14177617943658,133.40102620095277L107.21294329043072,140.3812812562327L107.24697973481919,142.11536893477142L107.34661369021097,121.27967694376719L107.71668266738044,143.78877715919816L107.79403822280884,143.78397617658504L108.40421884402805,137.7063106740493L108.53788924380832,144.71435670475694L109.07566506514655,124.78407844482035L109.26379377594843,137.83685207927223L109.39189457573785,146.21336257610056L109.56083910879347,133.49998213080676L109.64871501976013,137.8290726311715L109.8504583083174,132.0665241968225L109.90801084155612,129.3705729710628L110.69084906249152,132.2636573884993L110.90187501770019,142.38141304183694L110.95818986205207,143.3589753080018L111.01945546195135,138.95456133199178L111.10361830625746,136.71951649077818L111.44150737236872,130.55248979140393L111.48358879452176,139.203115542568L111.59931270544264,143.39163356130848L111.6166403498586,152.81557550762346L112.25652550436232,138.0117847944818L112.6067914593421,117.37488096606265L112.63959021484375,134.35171477709508L112.91868905882941,107.84200263896807L113.51773048006694,140.1674633542042L113.65078203540378,121.18642481750985L113.85004994618734,137.50676192396008L113.89460674611409,127.01968739847757L114.579667544988,134.19106567824647L114.59637634496053,137.21064628432302L114.6186547449239,143.1657559477448L114.71828870031568,126.9444073160972L114.83958221122742,147.87661677654208L114.90703625556098,134.6401257014765L114.98996141098023,143.39252071250183L115.40025527697246,136.32513439205158L115.412632165841,131.62166608807638L115.75732852082994,128.04309826510845L115.91822807612101,142.29666479013036L116.04942309812758,134.69277860695158L116.09583643138461,144.5494116726838L116.16514700904847,131.8949785670116L116.5506870973036,147.61813153514746L116.66702985266791,128.4282809916775L116.72396354146322,123.96008855922096L116.85453971902636,151.7802471629368L117.02657847429911,138.3605557503309L117.22522754063925,144.71933487653504L117.23451020729065,144.17573900962788L117.23698558506436,124.74947231606734L118.08108940589905,143.42151102955648L118.13431002803378,138.26412868352546L118.94375856003654,133.1551454976414L118.94994700447083,140.68075264168823L119.03967944876777,154.2532703117772L119.83056264746772,129.4578705770819L120.49582042415196,132.56585531743235L120.57688904624091,140.26922538185462L120.70932175713433,143.6206246416283L121.25204833401997,139.93860245367904L121.72484548879835,136.19416387565357L122.66982095391167,134.8079756715606L123.02132459777832,134.74976360670524L124.53935001750523,145.43231996906155L124.54491961749608,150.47516820314166L124.62351286181132,148.57770729301376L125.68668761561923,147.60381416846934L125.80736228208754,137.3357056737477L125.91627890413072,127.04342110363768L125.99672868177625,134.90665436666663L127.26474094635857,125.94822572318736L127.95660903411017,146.02317230680683L128.24932245585123,128.59937340294397L128.2623181891632,149.75682765850613L128.48200796657986,124.76842311914136L128.5692650331031,146.32676123095342L128.68560778846742,141.61588473236603L128.8130897438134,131.58376930340225L129.06186521007115,133.51730086497335L130.09904849725513,141.67568065139005L130.94872191808065,133.40324890041012L130.95119729585437,140.65322684732377L131.29279942862615,106.63289270596L131.7897315166982,139.46811821127602L131.81510413887872,148.72920041296973L132.60103658203127,137.8706795399941L132.79659142615424,144.1411678365605L132.92840529260422,147.00707119501473L132.9958593369378,146.49524522485237L133.04907995907254,145.68465300978897L133.11777169229296,139.14094745839645L133.26320013649834,131.1560925168172L133.4896972027927,140.7706755402334L134.47242217895507,151.65620751523716L135.4786632439677,144.16952292443182L135.70268493248832,144.69671613720902L136.3506150647566,129.34364986093297L136.35309044253032,150.58743019552801L136.43601559794956,146.73633338312987L136.92737808603076,142.2165728768206L137.09199070798238,146.95575986464596L137.329008129815,135.15159970404585L138.0821418174659,135.20841836295074L138.10256368409898,130.14274888764177L138.55246359447054,131.87226701431345L138.55741435001798,152.80951129885452L138.59949577217103,148.83137949811055L138.61125381659613,137.62010513186334L138.8445581717682,130.14992565150786L139.26475354885525,136.85883297845749L139.28641310437519,147.85098823214827L139.2882696377055,153.87184532141112L139.36438750424705,141.15457334401424L139.4250342597029,143.10845875755757L139.44731265966627,148.82957385614355L139.70351425924514,138.36765054914105L139.73507532585992,148.05759561999355L140.04078448091295,145.53545370603007L140.08719781416997,146.75995860512774L140.3489690137397,135.87835733670235L140.50986856903077,144.3805720950864L140.5977444799974,144.75275974418815L141.3143663454861,145.59813527716952L141.6423539005025,142.11975285989422L142.06873772202388,148.40571447150074L142.4654170102607,143.95961403234915L142.5273014546034,145.04268220063005L142.57804669896444,137.32463074825196L142.64054998775057,130.36825645308537L142.6999590543196,156.76803838412988L142.9734882983144,139.98342528557765L143.01371318713717,146.03874084595606L143.3231354088508,152.19484389357746L143.40977363093057,143.57722414452343L143.5193090974172,143.2849054155646L143.70991318599278,153.44471034795302L143.8541039413113,136.72698736455078L143.93950447450425,153.56114412061154L143.98468011887445,147.5821778044458L144.73286305097793,142.75377667473518L144.85848847299363,153.19044630693782L144.98844580611336,151.32993596723566L145.10664509480796,130.02552680400436L145.36408438327365,147.5360350940733L145.45814873867457,140.5939998622173L145.46186180533516,152.79330692783776L145.68650233829922,143.32656294986288L145.88515140463934,148.09335769710862L146.3257686483595,146.93176338915956L146.51327851471797,135.47767116088144L146.69212455886841,128.9811907407468L146.71564064771863,152.33565624352715L147.2744571801334,139.54523768594052L147.5857359351773,152.0489780363203L147.8524578902944,148.31354838223422L148.08576224546647,-551.0469437080145L148.29493166734483,151.36243511190438L149.12232668820698,140.26848769635143L149.17121539923775,127.53297427522472L149.46764188763936,144.6195315726472L149.6693851761966,142.41112899071007L150.31174570847406,139.2358702253522L150.40642890831842,150.38999325099698L151.06549824056836,148.73431599675334L151.3346955734592,152.41247799217973L151.78892739493477,157.16041806448686L152.5494872159068,150.28394734380672L153.29952668134055,155.62206745959537L153.37502570343867,150.72471684270505L153.75066428059895,139.74972844675375L153.78903263609143,146.33055332015778L153.81378641382852,137.90573888729153L154.16529005769516,147.76371834960395L154.18261770211114,150.8438687212618L154.70863547902425,151.2040605433573L154.76495032337613,139.1009123500578L154.95060365640427,154.88623099162825L155.18205147824605,139.1408751362883L155.195047211558,147.34694532619204L156.57878338706124,158.93741053234749L156.75391636455112,148.23299601816922L157.00888027524311,141.8262058604652L157.20938587491352,152.4765722551652L157.9278642737325,137.26996969890706L157.97737182920667,147.27022121238545L158.07329271793787,146.57546008574596L158.12403796229893,145.91951061844878L158.55846676158484,146.49535611875154L158.93472418318856,151.91066079910203L159.1995896049754,147.2015598082699L159.4601231156582,145.44298145317237L159.5820354710134,148.15575841739474L159.79863102621292,147.0829636045775L159.92982604821947,136.51766548691265L159.94715369263542,128.16852649728472L159.9805712925805,134.42435751326468L160.21820755885653,143.26414776515514L160.55114586942037,138.49513031845203L160.66439440256752,148.76716469827815L160.7423688024394,154.32164423551282L160.88222764665392,140.8144617552485L161.06045484636093,149.75131671386458L161.40391351246305,146.74649946079978L161.6947704008738,148.22585300462026L161.7306633785926,140.00740006443164L162.0834047113461,152.753304967132L162.4163430219099,147.39457305051866L162.50545662176344,153.49817928788178L162.72390871029324,152.3693933016138L163.25425839831036,145.86687217739535L163.39968684251573,145.00365357496327L163.69301910870024,160.95909053940593L164.66769910709806,152.82210016714765L164.71968204034593,133.42901967828334L164.7642388402727,153.92207242284175L165.26797821722243,152.25026492774222L166.19500719347636,146.36035726092916L166.31630070438808,147.50845626349619L166.39365625981648,148.8363359732562L166.69936541486953,142.75496998951976L166.75444257033453,141.67251294305277L166.8472692368486,145.32957195000324L166.92648132560728,149.32313367252246L167.06881554759553,150.319052495106L167.12265501417372,128.69834861869344L167.53913732460023,128.68651913253592L167.7687286131117,145.01024211901634L167.87269447960747,150.73015546523845L168.07258123483447,152.12735832640368L168.803436522522,155.30087714237612L168.93277501119826,146.63366973986442L169.5033495880381,148.79047411373708L169.551000610182,143.8602458664787L169.81524718752542,148.87236925827685L169.827624076394,146.7841539664116L169.9322087873332,151.86766590848708L170.5949911862437,138.89977733506302L170.8839915413242,154.81708081059838L171.75470567322623,140.8631297125641L171.8147335842387,154.70811429560706L172.07341056159126,154.06685706458194L172.37355011665343,141.58301915568268L172.37911971664428,139.71503553147096L172.68544771614074,153.74068435679493L172.7689917160034,154.32794349113328L172.97754229343838,151.42006739452603L173.05861091552734,137.65347937404076L173.42434798159283,151.8872887044827L173.7195367811076,157.01096955079691L173.88910015860662,152.67633736889465L174.30558246903314,152.08964777115804L174.32167242456222,147.59205459368306L174.5234157131195,143.64988496122004L174.83407562371997,149.79657347841214L174.93680380132886,153.65971674329228L175.02282317896527,154.20622658847392L175.27283633410983,144.88175948313892L175.66270833346897,147.98520118972863L175.78028877772013,151.09881017935675L176.2048160659112,147.46567291504758L176.2574178436025,153.73518787657503L176.48639028767056,151.1664675115374L176.52413979871963,147.3177934897625L176.7512557094574,140.14185409570587L177.07862442003037,149.2567672899724L177.2636589086151,150.66585387887628L177.80452895217047,150.45651994755346L178.22719970703125,150.17566909421134L178.78725392833286,152.3758010403965L179.17898246102226,145.86105747989956L179.35597197184245,149.74121331535508L179.487166993849,138.52390487455068L179.96367721528796,152.45060741296845L180.23411223706563,151.86992235826156L180.33622157023112,142.17340983730418L180.8114941027832,146.6164763640186L181.0955437023163,142.94782894460448L181.57081623486835,147.1044143418568L181.65869214583503,136.47341882114233L181.92293872317845,137.053661505621L181.9470736564721,154.83164045633882L181.97306512309603,150.84092762219674L181.99348698972915,144.43720512724704L182.37531401132372,132.88222596882716L182.87967223271687,145.71077334451826L182.91061445488822,142.5044944216035L183.22003667660184,152.55701432801527L183.24788467655605,150.11593464897928L183.28810956537885,151.71073115257653L183.50408627613493,146.16748866289672L184.18110209724426,149.09356642607432L184.3141536525811,142.67834953740157L184.75662742963155,156.27490828161027L185.27336253989327,141.82692305470442L185.34329196200054,153.05181386586483L185.38722991748386,150.34418924916437L185.40270102856954,156.11633181384457L185.42064751742893,155.4710287635523L186.22885836054482,144.47257545960957L186.34334458257888,145.03799211191608L186.55065747112698,147.99093753827395L186.70722511531406,156.5079397570391L186.72083969306945,154.1124893014077L187.32792609207152,156.64354370983307L187.62187720269944,150.9959850167164L187.85394386898466,157.08301502689L188.10086280191211,151.73254591113354L188.32612217931958,150.71185073966396L188.41276040139942,147.73824529774268L188.9802407560221,155.08919816669635L189.30203986660428,153.91638790514062L190.09787382085165,138.03880433408918L190.25506030948213,147.6072253612374L190.3039490205129,155.06208942982224L190.45804128692626,154.61678533474247L190.6975340865326,154.46046170064585L190.73342706425137,152.1964693329583L190.84172484185112,135.0401657997979L191.0279970193227,146.29157773070364L191.80340910693698,147.7157338362104L192.15615043969046,151.31889840816245L192.17657230632358,150.33043599492987L192.20070723961723,157.00711930256392L192.62028377226088,152.92640371421558L192.74405266094632,152.7698860157954L193.205710615743,145.10353402243317L193.66179897054883,124.32547913552443L193.86044803688895,153.49676056919344L193.88705834795635,145.91418288981458L194.26517230289036,148.0078814028466L194.30168412505256,143.8426836478813L194.48795630252414,140.63966163057052L194.71259683548823,154.41609630608133L194.84379185749478,151.69378668531965L195.24604074572247,142.1258303277163L195.60063861180626,142.5916931874081L195.62415470065648,151.83868583706442L195.63096198953417,153.27915539943444L195.78257887817384,157.27679337677463L195.9775148778534,146.79870035309887L196.0938576332177,145.42102205039902L196.10314029986912,157.18151020464657L196.33830118837145,135.87006199089677L196.43979167709352,149.29315374795453L196.74921389880708,154.83572725813391L196.8197621653578,155.20528780665688L196.8240940764618,149.6498861625432L197.04625923165216,143.83407249553676L197.75545496381972,152.26339741721503L197.80496251929387,150.62252088240567L198.07477869662813,144.81137440211228L198.25671896299576,150.03410338896836L198.75055682885065,151.0079470934055L198.81058473986306,146.54079127783254L199.22397282807245,150.67838488948289L199.42819149440342,148.93849336176459L200.10892038217332,150.06459680050418L200.1380060710144,151.32075949707902L200.26610687080384,144.68213479483614L200.88928322533502,149.8645056346038L201.2915321135627,156.071927847489L201.4536693577406,155.68973021593413L201.54030757982042,140.35396760671884L201.75999735723707,141.93213002544007L201.9635971791246,152.18340554948824L202.07498917894154,152.02913224715786L202.36955913401286,158.25531692429377L202.57439664478727,152.99497049690632L202.7458165556166,149.2229542936722L202.95622366638185,146.29153313207027L202.99087895521376,150.14033974437677L203.22975291037665,133.4345450873465L203.26812126586915,145.92156095021505L203.76195913172404,147.61502650597058L203.79908979832965,147.33307515121604L204.03115646461487,148.60693386228837L204.56521921929254,140.27229183924047L204.807806241116,149.41181745228124L204.97675077417162,145.08020773181568L205.18344481827629,152.81856964290114L205.3678604624176,152.80990846776513L205.40870419568378,137.63858343049742L205.47615824001736,154.13490011467277L205.48049015112136,148.20142621259032L205.68780303966946,156.1207512973372L205.75401939511616,155.05807193671413L205.88088250601874,147.855354076744L205.9279146837192,154.43837874760442L206.1686451722124,151.20880125754695L206.29736481644525,142.1824488954553L206.3029344164361,156.92550983035136L206.56903752710977,152.49304843677177L206.98861405975344,150.98624563948462L207.0969118373532,154.81448263886287L207.10310028178745,151.7193308539206L207.29494205924988,155.84969165207104L208.7071450791507,151.3466363473775L209.59704338879905,152.34102555737354L209.80868818845113,140.63521382091886L209.85633921059502,156.2092325751931L210.20103556558396,138.92715125300037L210.38359467639498,157.27342768666628L210.60328445381165,153.32065141435785L211.148486408471,151.33682946951146L211.23450578610738,148.57667188149864L211.3031975193278,139.4740196953016L211.3217628526306,153.46236839334372L211.37931538586935,148.4526828592747L211.42696640801324,153.14121905865244L211.85087485176086,154.38683417843686L211.8762474739414,148.5468221367254L212.26240640663994,153.4947102374272L212.8348375168101,158.1872675460185L212.8527840056695,154.68087598162253L212.87939431673684,154.89395137667398L213.42026436029224,146.27636839135826L213.54155787120396,154.3234028681095L213.66223253767225,152.92364040699977L213.6746094265408,154.68825585007568L213.77114915971543,155.9368355736103L214.0409653370497,151.33991762352977L214.18639378125508,149.71514119536457L214.23156942562528,153.24797794129228L214.2730320033349,146.53624824407183L214.52675822514004,151.28092327453783L215.10104586864048,152.3487604068409L215.20067982403225,155.5496441004872L215.23162204620363,145.9641381806554L215.28731804611206,156.10533704535203L215.4475987569597,145.2387173016313L215.6072606233639,158.35495991417523L215.84118382297942,152.05011228804992L215.88264640068903,150.20275251834758L216.1759786668735,134.23072230088576L216.42104106647068,150.95871261290932L216.71870524375916,140.5878235541807L216.7193240882026,148.8589101139489L217.2589564428711,154.8575745616396L217.7552696864997,158.16648518555542L218.21321457463583,145.55425263267693L218.26891057454426,146.82159994327822L219.19532070635478,156.67205911171078L219.25596746181063,139.91940334470036L219.64707715005662,149.88253794690422L219.7850794609409,152.02143536679728L219.88718879410635,122.87604042637452L219.93669634958056,150.41156693586015L220.05303910494484,149.119867566074L220.31233492674085,141.54921821306712L220.68611697057088,155.810456908396L220.69973154832627,141.18572729747123L220.94974470347086,141.42325720802742L221.0394771477678,147.29356317279306L221.06051785884435,152.39328912883303L221.06546861439176,147.78223883613444L221.54383536916094,156.67770204419972L221.9380392796241,143.74093005781015L221.96650612402175,151.4510296943964L222.091512701594,157.01986938888984L222.26664567908392,149.36263239189228L222.86754363365174,-861.4471832867043L223.27164905520968,157.36292961027357L223.46596621044583,151.3959817217729L224.00126665401035,155.4776052539207L224.11018327605353,159.87338924370388L224.4455969643911,151.32809536958308L224.63743874185352,155.34234724187746L224.70922469729106,142.25283277111348L224.75501918610468,156.63646940228685L224.78162949717202,158.74951769535622L225.20986985202367,151.8851937740831L225.28908194078235,155.88534042454998L225.3497286962382,141.88168053352683L225.76744869555154,154.72332664837361L225.99889651739332,147.96980140216513L226.03850256177267,152.92549305833705L226.0527359839715,154.2510470096356L226.25324158364188,149.13956328686203L226.55214344981724,151.89128450095836L227.22606504870944,158.41612422775398L228.36164460239834,147.15925016962973L228.63641153528002,146.9882505717354L228.67911180187647,151.7741070159543L229.45699926726448,142.50315164112874L229.62470611143323,157.70966801354132L229.62780033365036,148.63650757768215L229.66059908915202,142.10045491070105L230.12287588839214,155.60675325319318L230.2169402437931,148.9253452025017L230.40754433236864,154.406632958229L230.8234077983517,153.56757476139515L230.95336513147143,157.43751088028387L231.06723250906202,150.5183939218185L231.47443215283712,153.74103090022987L231.84635766333685,146.78689376894226L232.00849490751477,152.87037035286843L232.10751001846313,142.60482206077552L232.16011179615444,152.02061752429088L232.33338824031406,155.71827997081326L232.4138380179596,149.1164575786744L232.47015286231147,146.2354907304596L232.59701597321404,150.667982559593L232.7139775730218,154.61895620335565L233.11993952791,156.78602609779693L234.1521720595466,146.07742112013523L234.34896459255643,158.3035569758028L234.35453419254728,153.8618986208026L234.76544690298292,154.72249253339288L235.0018454803721,153.7075499829429L235.31931267985024,146.89235868853035L235.74940956803215,152.23167332447207L236.0483114342075,139.58681084444595L236.1281423674096,144.58280761149365L236.16527303401523,152.96262021524356L236.55019427782696,160.13824259739278L236.8497149884457,148.13721020738947L237.0248479659356,138.5878713684784L237.62698360939024,149.88765594142478L238.02366289762708,151.69984004577236L238.14186218632167,156.13471308031686L238.7062483187273,152.3729147855968L239.02371551820545,149.7418208210636L239.21927036232842,150.6249484945028L239.2731098289066,143.64784186166463L239.30900280662536,145.7008929391756L239.64317880607604,156.4114741184427L239.65246147272745,147.29299906034942L239.7718984503089,155.1383084942402L239.97302289442274,148.5605669533806L240.24160138287013,134.25340974621454L240.56525702678258,154.3005267826153L240.64013720443725,151.6099804290718L240.79237293752035,149.738156500917L240.79608600418092,144.84815381021542L240.88643729292127,152.84912513091314L240.9347071595086,154.21551334984548L241.2602193367513,155.67693221621158L241.445253825336,154.58215630398854L241.47743373639426,153.6618086602707L241.53065435852898,152.90562376448943L241.5516950696055,153.0582077429101L241.70083658047145,151.81527155454867L241.90505524680245,136.51008612997782L242.0473894687907,144.85221469658842L242.19900635743036,150.60538174814099L242.20333826853434,147.54581063235915L242.22932973515827,156.5234468223964L242.56226804572213,159.7105750017423L243.3952326665751,156.19327651008103L243.41565453320823,151.7875004677007L243.4744447553338,147.65022688137896L243.48496511087205,156.57264212841733L243.95590573232013,155.45384563333852L244.07967462100558,155.60217526374686L245.25795444129096,155.482635256543L245.3705841299947,153.24744938721852L245.74746039604187,145.91668041328293L246.4628445726437,151.57456067660203L247.04950910501267,139.5743907277385L247.1231515937805,151.39876130146305L247.94559585909525,154.48740831546084L248.01614412564595,153.13599679975928L248.06070092557272,153.4396490057505L248.0922619921875,157.0445016962438L248.59785790246752,155.3616066192796L248.74266750222947,154.39933626020024L248.82930572430928,158.5806778164167L248.91470625750225,151.32741674713486L249.0916957683224,156.99260154337782L249.1690513237508,151.09707203802404L249.32438127905104,147.204341798697L250.51689452153522,154.9482616637943L250.54412367704603,150.2613008810059L250.94699140971713,158.3719688686452L250.9667944319068,150.83287214471656L251.06147763175116,149.0727364535567L251.067047231742,154.02703108767273L251.1877218982103,151.87391273057912L251.23784829812791,128.16902310909407L251.517565986557,156.39457304445068L252.486676384964,152.66553304862026L252.5002909627194,156.9764954098913L252.67913700686984,153.52086673321057L252.69708349572923,155.10304785040836L253.34130056133694,154.59104890987066L253.39018927236768,150.4655855238109L253.68723460521272,140.7247702874494L254.36734464853922,145.4055680212544L254.37910269296435,154.47045179451925L254.4533640261756,151.91820278961433L255.39091335796778,155.74904579562315L255.84514517944336,154.09424424157245L256.2176895343865,146.02650635599286L256.5951846448771,148.79764485076083L256.706576644694,160.33329291235464L257.82049664286296,153.87869362236933L258.38921468637255,157.8378402670379L258.45048028627184,152.38064059480067L258.508651663954,155.30788756539346L258.6577931748199,155.72786807430214L258.9307035743713,151.55634032682042L258.9981576187049,141.6726334798997L259.2258923738861,152.0364645035565L259.26302304049176,151.27730837449846L259.43382410687764,152.47253487347734L259.4350617957645,152.5787459161479L259.4895201067861,152.5151886448155L259.7290129063924,145.5111486562155L259.8082249951511,156.8736015412482L259.8868182394664,150.35796540539977L259.9610795726776,156.30870138933074L259.99140295040553,157.62866212958974L260.1813881945377,153.27667414844043L260.2587437499661,151.94918497806444L260.5229903273095,158.31821244833654L260.7711469491238,155.84661434636897L260.92400152665033,155.66410950643538L261.1628754818132,157.1516438860569L261.28045592606435,155.47675125036022L261.4252655258264,157.96353428296166L261.4481627702332,153.9332100274979L261.55274748117233,134.36869841882725L261.6022550366465,155.42304907163265L261.68208596984863,143.16413834325903L261.755109614173,158.99637896591733L261.7885272141181,154.93641168637282L262.13817432465447,160.03085225234608L262.5100998351542,158.55139429348193L262.82261627908497,141.19857170387985L262.82756703463235,158.30806204045672L263.1407023230065,148.48388864357585L263.455694144711,153.64629918417648L263.6970434776476,154.35178266603447L264.0615428548262,158.11570240926042L264.16241449910484,155.79853460886636L264.2051147657013,149.067918595785L264.87532329793294,148.23143386063305L265.11914800864326,159.02153711526603L265.13400027528553,139.5439093698874L265.5393433857303,151.96279238271413L265.5820436523268,139.73814967723786L266.3624064954885,153.022879598444L266.4286228509352,154.57859022137217L266.50969147302413,151.65906423850933L266.629747295049,154.0495184418356L266.74175813930935,147.84195520083946L266.7541350281779,146.15196472238085L266.89523156127933,145.0609688456775L267.199084183002,146.58171956420694L267.2448786718157,151.78929827477265L267.777084893163,147.28685891336693L267.99368044836257,153.89279221467024L268.0097704038917,152.28016228457L268.30062729230247,157.88101536023902L268.49246906976487,148.0343428568527L268.79013324705335,144.79989929428473L268.8167435581207,147.66150430877752L269.0191056911214,152.59279569102583L269.2282751129998,150.2785882755923L269.53212773472256,153.10921893653003L269.58287297908356,140.32594520054505L270.251224977985,155.60438590951952L270.4405913776737,158.01705023226071L271.01178479895697,151.27949732363865L271.1497871098412,159.6777457367841L271.4400251538086,156.00176575962922L271.70922248669945,152.9550944972056L272.1424135970985,156.2658300489839L272.1931588414595,159.54353247786156L272.2241010636309,157.17366325591155L272.25875635246274,158.05102806269912L272.4406966188304,145.96114404537772L272.47040115211485,159.0024401612651L272.5069129742771,155.59827469138028L272.8101467515564,153.6292245371249L272.81324097377353,146.22552594932404L273.09790941775003,160.2267549134868L273.2897511952125,157.82851915266497L273.33059492847866,151.9756024361214L273.7879209721714,158.1821296629182L273.8751780386946,142.36983306695254L274.04969217174107,159.20976353798116L274.13756808270773,152.12867699950908L274.40924079337225,149.55851320572947L274.52558354873656,154.24549809588729L274.6722496818288,153.15363254583332L274.7310399039544,155.00452826394027L274.7458921705966,156.7741387539529L275.5342999915229,159.67918660411806" fill="none"></path></g></g></g></g></g></g><g transform="translate(51, 177)" clip-path="url(#clip_1)"><clipPath id="clip_1"><rect width="278" height="22"></rect></clipPath><g><g><line x1="0" y1="0" x2="0" y2="5" style="visibility: inherit;" fill="rgb(0, 0, 0)" stroke="rgb(204, 204, 204)" stroke-width="1px"></line><line x1="30.94222217135959" y1="0" x2="30.94222217135959" y2="5" style="visibility: inherit;" fill="rgb(0, 0, 0)" stroke="rgb(204, 204, 204)" stroke-width="1px"></line><line x1="61.88444434271918" y1="0" x2="61.88444434271918" y2="5" style="visibility: inherit;" fill="rgb(0, 0, 0)" stroke="rgb(204, 204, 204)" stroke-width="1px"></line><line x1="92.82666651407877" y1="0" x2="92.82666651407877" y2="5" style="visibility: inherit;" fill="rgb(0, 0, 0)" stroke="rgb(204, 204, 204)" stroke-width="1px"></line><line x1="123.76888868543836" y1="0" x2="123.76888868543836" y2="5" style="visibility: inherit;" fill="rgb(0, 0, 0)" stroke="rgb(204, 204, 204)" stroke-width="1px"></line><line x1="154.71111085679797" y1="0" x2="154.71111085679797" y2="5" style="visibility: inherit;" fill="rgb(0, 0, 0)" stroke="rgb(204, 204, 204)" stroke-width="1px"></line><line x1="185.65333302815753" y1="0" x2="185.65333302815753" y2="5" style="visibility: inherit;" fill="rgb(0, 0, 0)" stroke="rgb(204, 204, 204)" stroke-width="1px"></line><line x1="216.59555519951715" y1="0" x2="216.59555519951715" y2="5" style="visibility: inherit;" fill="rgb(0, 0, 0)" stroke="rgb(204, 204, 204)" stroke-width="1px"></line><line x1="247.5377773708767" y1="0" x2="247.5377773708767" y2="5" style="visibility: inherit;" fill="rgb(0, 0, 0)" stroke="rgb(204, 204, 204)" stroke-width="1px"></line><line x1="278.4799995422363" y1="0" x2="278.4799995422363" y2="5" style="visibility: inherit;" fill="rgb(0, 0, 0)" stroke="rgb(204, 204, 204)" stroke-width="1px"></line></g><g transform="translate(0, 8)"><text style="text-anchor: middle; visibility: hidden; font-family: &quot;Helvetica Neue&quot;, sans-serif; font-size: 12px; font-weight: 200;" x="0" y="0" dx="0em" dy="0.95em" fill="rgb(50, 49, 63)" stroke="none" stroke-width="1px">-50k</text><text style="text-anchor: middle; visibility: inherit; font-family: &quot;Helvetica Neue&quot;, sans-serif; font-size: 12px; font-weight: 200;" x="30.94222217135959" y="0" dx="0em" dy="0.95em" fill="rgb(50, 49, 63)" stroke="none" stroke-width="1px">0</text><text style="text-anchor: middle; visibility: hidden; font-family: &quot;Helvetica Neue&quot;, sans-serif; font-size: 12px; font-weight: 200;" x="61.88444434271918" y="0" dx="0em" dy="0.95em" fill="rgb(50, 49, 63)" stroke="none" stroke-width="1px">50k</text><text style="text-anchor: middle; visibility: inherit; font-family: &quot;Helvetica Neue&quot;, sans-serif; font-size: 12px; font-weight: 200;" x="92.82666651407877" y="0" dx="0em" dy="0.95em" fill="rgb(50, 49, 63)" stroke="none" stroke-width="1px">100k</text><text style="text-anchor: middle; visibility: hidden; font-family: &quot;Helvetica Neue&quot;, sans-serif; font-size: 12px; font-weight: 200;" x="123.76888868543836" y="0" dx="0em" dy="0.95em" fill="rgb(50, 49, 63)" stroke="none" stroke-width="1px">150k</text><text style="text-anchor: middle; visibility: inherit; font-family: &quot;Helvetica Neue&quot;, sans-serif; font-size: 12px; font-weight: 200;" x="154.71111085679797" y="0" dx="0em" dy="0.95em" fill="rgb(50, 49, 63)" stroke="none" stroke-width="1px">200k</text><text style="text-anchor: middle; visibility: hidden; font-family: &quot;Helvetica Neue&quot;, sans-serif; font-size: 12px; font-weight: 200;" x="185.65333302815753" y="0" dx="0em" dy="0.95em" fill="rgb(50, 49, 63)" stroke="none" stroke-width="1px">250k</text><text style="text-anchor: middle; visibility: inherit; font-family: &quot;Helvetica Neue&quot;, sans-serif; font-size: 12px; font-weight: 200;" x="216.59555519951715" y="0" dx="0em" dy="0.95em" fill="rgb(50, 49, 63)" stroke="none" stroke-width="1px">300k</text><text style="text-anchor: middle; visibility: hidden; font-family: &quot;Helvetica Neue&quot;, sans-serif; font-size: 12px; font-weight: 200;" x="247.5377773708767" y="0" dx="0em" dy="0.95em" fill="rgb(50, 49, 63)" stroke="none" stroke-width="1px">350k</text><text style="text-anchor: middle; visibility: hidden; font-family: &quot;Helvetica Neue&quot;, sans-serif; font-size: 12px; font-weight: 200;" x="278.4799995422363" y="0" dx="0em" dy="0.95em" fill="rgb(50, 49, 63)" stroke="none" stroke-width="1px">400k</text></g><line x1="0" y1="0" x2="278.4799995422363" y2="0" fill="rgb(0, 0, 0)" stroke="rgb(204, 204, 204)" stroke-width="1px"></line></g></g></g></g></svg>